<?xml version="1.0" standalone="no"?>
<!DOCTYPE svg PUBLIC "-//W3C//DTD SVG 1.1//EN" "http://www.w3.org/Graphics/SVG/1.1/DTD/svg11.dtd" >
<svg xmlns="http://www.w3.org/2000/svg" xmlns:xlink="http://www.w3.org/1999/xlink" version="1.1">
<metadata></metadata>
<defs>
<font id="nike_futura_ndcn_xbold" horiz-adv-x="553" >
<font-face units-per-em="1000" ascent="800" descent="-200" />
<missing-glyph horiz-adv-x="300" />
<glyph unicode=" "  horiz-adv-x="300" />
<glyph unicode="&#x09;" horiz-adv-x="300" />
<glyph unicode="&#xa0;" horiz-adv-x="300" />
<glyph unicode="!" horiz-adv-x="265" d="M219 256h-173l-16 498h205zM18 103q0 24 9 44.5t24.5 36.5t36 25t44.5 9t44.5 -9t36.5 -25t25 -36.5t9 -44.5t-9 -44.5t-25 -36t-36.5 -24.5t-44.5 -9t-44.5 9t-36 24.5t-24.5 36t-9 44.5z" />
<glyph unicode="&#x22;" horiz-adv-x="387" d="M152 443h-126l-26 311h179zM360 443h-126l-27 311h180z" />
<glyph unicode="#" horiz-adv-x="534" d="M481 342v-119h-79l-28 -223h-123l28 223h-63l-28 -223h-123l28 223h-65v119h79l11 84h-65v120h79l26 208h123l-26 -208h63l26 208h123l-26 -208h65v-120h-80l-10 -84h65zM303 426h-62l-11 -84h63z" />
<glyph unicode="$" horiz-adv-x="457" d="M159 19q-35 2 -70 10t-71 22v220q29 -35 58.5 -50.5t61.5 -15.5q35 0 52 14t17 31q0 11 -7.5 25.5t-28.5 27.5l-65 39q-30 18 -47.5 39t-27.5 43.5t-13 44.5t-3 42q0 45 11 80.5t30.5 62t45.5 44t57 27.5v43h110v-32q58 -6 121 -38v-214q-29 38 -58 52.5t-56 14.5 q-26 0 -42.5 -10.5t-16.5 -30.5q0 -14 9.5 -28t31.5 -27l52 -30q52 -30 76.5 -81t24.5 -111q0 -78 -39 -129t-103 -71v-46h-110v32z" />
<glyph unicode="%" horiz-adv-x="720" d="M720 173q0 -41 -11.5 -75t-33 -58.5t-52 -38t-67.5 -13.5q-38 0 -68 13.5t-51.5 38t-33 58.5t-11.5 75t11.5 75t33 58.5t51.5 38t68 13.5q37 0 67.5 -13.5t52 -38t33 -58.5t11.5 -75zM588 173q0 73 -32 73t-32 -73q0 -74 32 -74t32 74zM131 -26l-78 56l533 755l81 -57z M328 581q0 -41 -11.5 -75t-33 -58.5t-52 -38t-67.5 -13.5q-38 0 -68 13.5t-51.5 38t-33 58.5t-11.5 75t11.5 75t33 58.5t51.5 38t68 13.5q37 0 67.5 -13.5t52 -38t33 -58.5t11.5 -75zM196 581q0 73 -32 73t-32 -73q0 -74 32 -74t32 74z" />
<glyph unicode="&#x26;" horiz-adv-x="838" d="M760 0h-220l-29 41q-83 -54 -168 -54q-48 0 -91.5 18t-76.5 49.5t-52 74t-19 91.5q0 126 130 199q-58 76 -58 148q0 42 16.5 78.5t45 63.5t66.5 43t82 16q47 0 88.5 -16.5t73 -44.5t49.5 -65t18 -78q0 -114 -129 -196l74 -97q26 28 71 86l103 -138q-21 -24 -40 -42.5 t-37 -35.5zM333 280q-36 -21 -36 -56q0 -26 17 -44.5t42 -18.5q27 0 51 21zM396 498q47 45 47 75q0 17 -12 28.5t-29 11.5t-29.5 -11.5t-12.5 -28.5q0 -23 36 -75z" />
<glyph unicode="'" horiz-adv-x="301" d="M299 754l-132 -363h-160l92 363h200z" />
<glyph unicode="(" horiz-adv-x="305" d="M302 754q-27 -32 -48 -76t-36 -94t-22.5 -103t-7.5 -104q0 -56 8.5 -110.5t23.5 -104t36 -91.5t46 -71h-201q-15 26 -31 66.5t-29 90t-21 106t-8 114.5q0 73 12 138q16 85 43 148t49 91h186z" />
<glyph unicode=")" horiz-adv-x="308" d="M191 754q22 -28 49 -91t43 -148q6 -32 9.5 -66.5t3.5 -71.5q0 -58 -8.5 -115t-22 -107t-29 -90.5t-30.5 -64.5h-201q25 29 46 71t36 91.5t23.5 104t8.5 110.5q0 51 -7.5 104t-22.5 103t-36 94t-48 76h186z" />
<glyph unicode="*" horiz-adv-x="497" d="M166 754h164l-8 -119l108 45l52 -156l-116 -29l77 -89l-127 -97l-68 104l-68 -104l-127 97l76 89l-114 29l50 156l109 -45z" />
<glyph unicode="+" horiz-adv-x="497" d="M0 323v117h188v202h121v-202h188v-117h-188v-201h-121v201h-188z" />
<glyph unicode="," horiz-adv-x="161" d="M255 223l-85 -223h-167l59 223h193z" />
<glyph unicode="-" horiz-adv-x="269" d="M257 302h-245v150h245v-150z" />
<glyph unicode="." horiz-adv-x="120" d="M6 101q0 24 9 44.5t24.5 36t36 24.5t44.5 9t44.5 -9t36 -24.5t24.5 -36t9 -44.5t-9 -44.5t-24.5 -36t-36 -24.5t-44.5 -9t-44.5 9t-36 24.5t-24.5 36t-9 44.5z" />
<glyph unicode="/" horiz-adv-x="390" d="M257 768l121 -14l-247 -767l-119 13z" />
<glyph unicode="0" horiz-adv-x="568" d="M550 378q0 -88 -18 -160t-52 -123.5t-83.5 -79.5t-112.5 -28t-112.5 28t-83.5 79.5t-52 123.5t-18 160t18 160t52 123t83.5 79t112.5 28t112.5 -28t83.5 -79t52 -123t18 -160zM350 378q0 109 -16 161.5t-50 52.5t-50 -52.5t-16 -161.5q0 -215 66 -215t66 215z" />
<glyph unicode="1" horiz-adv-x="339" d="M291 0h-204v577h-81v177h285v-754z" />
<glyph unicode="2" horiz-adv-x="533" d="M498 0h-519l206 275q35 47 59 82.5t38.5 65t20.5 55.5t6 55q0 31 -12.5 49t-35.5 18q-48 0 -48 -92v-11.5t1 -16.5h-197q-1 7 -1.5 15.5t-0.5 15.5q0 57 19 104.5t53 81.5t80 52.5t99 18.5q51 0 95.5 -17.5t77 -50t51 -78t18.5 -101.5q0 -45 -11 -87t-35 -84.5t-61.5 -87 t-90.5 -95.5q91 6 188 6v-173z" />
<glyph unicode="3" horiz-adv-x="519" d="M199 222q0 -68 50 -68q25 0 40.5 19t15.5 51q0 79 -83 79q-6 0 -14.5 -0.5t-20.5 -1.5v160q9 0 14.5 -0.5t10.5 -0.5q83 0 83 77q0 63 -43 63q-17 0 -28.5 -12.5t-11.5 -38.5v-10h-197q4 52 23 94.5t50.5 72.5t74.5 46t96 16q49 0 92 -17t75 -47t50 -70t18 -86 q0 -104 -91 -158q101 -59 101 -175q0 -50 -18.5 -92t-52.5 -72t-81 -47t-104 -17q-55 0 -100.5 16t-78.5 45.5t-51 70.5t-18 91v12h199z" />
<glyph unicode="4" horiz-adv-x="569" d="M492 0h-203v153h-274v159l228 442h249v-439h65v-162h-65v-153zM298 315v141q0 10 1.5 31.5t3.5 54.5q-7 -16 -14.5 -32t-15.5 -32l-90 -163h115z" />
<glyph unicode="5" horiz-adv-x="491" d="M15 224q88 -52 161 -52q48 0 76.5 24t28.5 60q0 42 -32 63.5t-89 21.5q-63 0 -133 -27l59 440h375v-177h-215l-16 -85q11 1 19 1.5t15 0.5q45 0 85 -17.5t70 -49t47.5 -74.5t17.5 -93q0 -58 -22 -108t-60 -86.5t-90.5 -57.5t-113.5 -21q-107 0 -207 58z" />
<glyph unicode="6" horiz-adv-x="539" d="M427 754l-121 -214q-8 -14 -16.5 -28.5t-20.5 -31.5q40 21 72 21q39 0 73 -19t59 -51.5t39.5 -76.5t14.5 -94q0 -59 -18.5 -109t-53 -86.5t-83 -57t-108.5 -20.5q-56 0 -101 20t-77.5 56t-50 86t-17.5 110q0 131 121 363l69 132h219zM331 253q0 101 -58 101 q-56 0 -56 -101q0 -104 56 -104q58 0 58 104z" />
<glyph unicode="7" horiz-adv-x="502" d="M195 0h-219l182 401q20 45 44 88t53 88h-256v177h535z" />
<glyph unicode="8" horiz-adv-x="538" d="M409 393q64 -26 90.5 -70.5t26.5 -108.5q0 -49 -19.5 -90.5t-53.5 -72t-81.5 -47.5t-102.5 -17q-56 0 -103 17t-81 47.5t-53.5 72t-19.5 90.5q0 126 128 179q-55 26 -84 62t-29 98q0 45 18.5 84.5t50.5 68.5t76.5 45.5t96.5 16.5t96.5 -16.5t77 -45.5t51 -68.5 t18.5 -84.5q0 -62 -24.5 -98t-78.5 -62zM319 236q0 34 -13.5 55.5t-36.5 21.5t-36.5 -21.5t-13.5 -55.5t13.5 -54.5t36.5 -20.5t36.5 20.5t13.5 54.5zM312 540q0 65 -43 65q-41 0 -41 -65q0 -66 41 -66q43 0 43 66z" />
<glyph unicode="9" horiz-adv-x="540" d="M113 1l121 214q8 14 16.5 28.5t20.5 31.5q-41 -21 -72 -21q-39 0 -73 19t-59 51.5t-39.5 76.5t-14.5 94q0 59 18.5 109t53 86.5t83 57t108.5 20.5q55 0 100.5 -20t78 -56t50 -86t17.5 -110q0 -131 -121 -363l-69 -132h-219zM209 502q0 -101 58 -101q56 0 56 101 q0 104 -56 104q-58 0 -58 -104z" />
<glyph unicode=":" horiz-adv-x="256" d="M14 538q0 24 9 44.5t24.5 36t36 24.5t44.5 9t44.5 -9t36 -24.5t24.5 -36t9 -44.5t-9 -44.5t-24.5 -36t-36 -24.5t-44.5 -9t-44.5 9t-36 24.5t-24.5 36t-9 44.5zM14 216q0 24 9 44.5t24.5 36t36 24.5t44.5 9t44.5 -9t36 -24.5t24.5 -36t9 -44.5t-9 -44.5t-24.5 -36 t-36 -24.5t-44.5 -9t-44.5 9t-36 24.5t-24.5 36t-9 44.5z" />
<glyph unicode=";" horiz-adv-x="291" d="M53 448q0 24 9 44.5t24.5 36t36 24.5t44.5 9t44.5 -9t36 -24.5t24.5 -36t9 -44.5t-9 -44.5t-24.5 -36t-36 -24.5t-44.5 -9t-44.5 9t-36 24.5t-24.5 36t-9 44.5zM258 223l-85 -223h-167l59 223h193z" />
<glyph unicode="&#x3c;" horiz-adv-x="490" d="M490 743v-213l-264 -148l262 -149v-211l-488 272v178z" />
<glyph unicode="=" horiz-adv-x="513" d="M0 416v106h513v-106h-513zM0 247v106h513v-106h-513z" />
<glyph unicode="&#x3e;" horiz-adv-x="490" d="M0 22v213l263 148l-263 149v211l490 -271v-179z" />
<glyph unicode="?" horiz-adv-x="513" d="M354 246h-194v185q11 -1 18.5 -1.5t12.5 -0.5q57 0 81.5 23.5t24.5 69.5q0 78 -44 78q-42 0 -42 -80h-197q0 57 16.5 103t47 78.5t75 49.5t101.5 17q53 0 98 -19.5t77.5 -52.5t51 -77t18.5 -93q0 -78 -36.5 -130.5t-108.5 -71.5v-78zM145 101q0 24 9 44.5t24.5 36 t36 24.5t44.5 9t44.5 -9t36 -24.5t24.5 -36t9 -44.5t-9 -44.5t-24.5 -36t-36 -24.5t-44.5 -9t-44.5 9t-36 24.5t-24.5 36t-9 44.5z" />
<glyph unicode="@" horiz-adv-x="746" d="M548 579l-30 -230q-1 -11 -1.5 -22.5t-0.5 -16.5q0 -31 23 -31q12 0 25 10t23.5 28.5t17.5 46t7 62.5q0 54 -16.5 95.5t-45.5 70t-67.5 43.5t-81.5 15q-52 0 -100 -20.5t-85 -57.5t-59.5 -90t-22.5 -117q0 -54 14 -102t46 -84t83 -56.5t125 -20.5q34 0 71 3.5t82 14.5 l1 -117q-28 -7 -63 -11.5t-80 -4.5q-111 0 -187.5 30.5t-123 82t-67 119t-20.5 142.5q0 90 30.5 164.5t83 128t122.5 82.5t150 29q72 0 132.5 -24t104.5 -68t68.5 -106t24.5 -138q0 -59 -15.5 -107t-42.5 -82t-64.5 -52.5t-80.5 -18.5q-30 0 -50 9.5t-37 29.5 q-47 -41 -99 -41q-30 0 -56.5 13.5t-46 39t-31 61.5t-11.5 80q0 48 13.5 89.5t37 71.5t55.5 47.5t68 17.5q38 0 67 -20l2 12h108zM414 392q0 32 -10 53.5t-30 21.5q-23 0 -38.5 -30.5t-15.5 -78.5q0 -35 9.5 -50.5t25.5 -15.5q24 0 41.5 28.5t17.5 71.5z" />
<glyph unicode="A" d="M571 0h-210l-17 96h-135l-17 -96h-210l174 754h242zM320 257l-29 203q-3 19 -6 45t-8 69q-5 -43 -8 -69t-6 -45l-30 -203h87z" />
<glyph unicode="B" horiz-adv-x="545" d="M24 754h237q67 0 116.5 -16t81.5 -44.5t47.5 -68t15.5 -85.5q0 -141 -140 -153q81 -12 117.5 -52.5t36.5 -118.5q0 -48 -16.5 -88t-46.5 -68.5t-72 -44t-92 -15.5h-285v754zM227 164q6 -1 10.5 -1h7.5q38 0 60.5 19.5t22.5 53.5t-22.5 53t-62.5 19h-16v-144zM227 461h14 q37 0 58 17t21 48q0 65 -72 65h-8t-13 -1v-129z" />
<glyph unicode="C" horiz-adv-x="470" d="M446 14q-68 -27 -122 -27q-68 0 -124.5 26.5t-97.5 77t-64 122.5t-23 164q0 87 23.5 159t67 123.5t105 80t137.5 28.5q26 0 50.5 -5t50.5 -14v-215q-47 45 -93 45q-66 0 -99.5 -54t-33.5 -148q0 -91 33 -142.5t96 -51.5q54 0 106 49z" />
<glyph unicode="D" horiz-adv-x="560" d="M24 754h176q87 0 152 -28.5t107.5 -79t64 -120t21.5 -150.5q0 -85 -19.5 -154.5t-60.5 -118.5t-103.5 -76t-147.5 -27h-190v754zM227 182q110 6 110 189q0 91 -28.5 143t-74.5 52h-7v-384z" />
<glyph unicode="E" horiz-adv-x="419" d="M24 0v754h378v-177h-175v-110h157v-171h-157v-115h175v-181h-378z" />
<glyph unicode="F" horiz-adv-x="396" d="M227 0h-203v754h360v-177h-157v-110h146v-171h-146v-296z" />
<glyph unicode="G" horiz-adv-x="595" d="M298 436h282v-31q0 -114 -18 -194t-53 -129.5t-86 -72t-117 -22.5q-69 0 -123 27t-91.5 77.5t-57 122.5t-19.5 163t20.5 163.5t58 123t91.5 77.5t121 27q177 0 258 -187l-197 -72q-5 35 -20 56t-47 21q-42 0 -59.5 -53.5t-17.5 -155.5t17.5 -155.5t59.5 -53.5 q32 0 51.5 29t19.5 80h-73v159z" />
<glyph unicode="H" horiz-adv-x="552" d="M528 0h-203v303h-98v-303h-203v754h203v-267h98v267h203v-754z" />
<glyph unicode="I" horiz-adv-x="251" d="M227 0h-203v754h203v-754z" />
<glyph unicode="J" horiz-adv-x="387" d="M18 222q34 -45 82 -45q62 0 62 94v483h204v-524q0 -115 -50.5 -179t-164.5 -64q-60 0 -133 24v211z" />
<glyph unicode="K" horiz-adv-x="559" d="M577 0h-215l-140 348q2 -20 3.5 -39t1.5 -39v-270h-203v754h203v-256q0 -17 -1.5 -33.5t-3.5 -33.5l125 323h210l-163 -364z" />
<glyph unicode="L" horiz-adv-x="386" d="M380 0h-356v754h203v-573h153v-181z" />
<glyph unicode="M" horiz-adv-x="777" d="M786 0h-213l-15 344q-2 35 -2.5 68.5t-2.5 68.5q-3 -40 -8.5 -76t-11.5 -69l-64 -336h-166l-54 336q-5 33 -10 69t-8 76q-1 -35 -3 -68.5t-4 -68.5l-17 -344h-216l88 754h253l46 -273q5 -29 8 -60.5t6 -67.5q3 35 7.5 67t9.5 61l52 273h251z" />
<glyph unicode="N" horiz-adv-x="579" d="M24 0v754h194l106 -277q8 -21 15.5 -45t15 -47.5t13.5 -45.5t11 -40q-6 79 -12.5 148.5t-6.5 114.5v192h195v-754h-195l-102 277q-16 43 -29 82.5t-23 75.5q6 -79 9 -138.5t3 -104.5v-192h-194z" />
<glyph unicode="O" horiz-adv-x="604" d="M589 377q0 -87 -20.5 -159t-58.5 -123.5t-91 -79.5t-117 -28q-65 0 -117.5 28t-90.5 79.5t-58.5 123.5t-20.5 159t20.5 159t58.5 123.5t90.5 80t117.5 28.5q64 0 117 -28.5t91 -80t58.5 -123.5t20.5 -159zM378 377q0 97 -20 149t-56 52t-56 -52t-20 -149t20 -148.5 t56 -51.5t56 51.5t20 148.5z" />
<glyph unicode="P" horiz-adv-x="528" d="M227 0h-203v754h197q81 0 138 -19t94 -52.5t54 -81t17 -104.5q0 -56 -15 -102t-47.5 -79t-82.5 -51t-120 -18h-32v-247zM227 414h19q34 0 55.5 22.5t21.5 62.5q0 35 -19.5 61.5t-57.5 26.5h-19v-173z" />
<glyph unicode="Q" horiz-adv-x="604" d="M378 377q0 97 -20 149t-56 52t-56 -52t-20 -149t20 -148.5t56 -51.5t56 51.5t20 148.5zM568 218q-4 -14 -10.5 -31t-11.5 -29l81 -48l-138 -129l-41 54q-23 -22 -63 -35t-83 -13q-63 0 -115.5 27.5t-91 78.5t-59.5 123t-21 161q0 88 21 160.5t59 123.5t90.5 79t116.5 28 t116.5 -28.5t90.5 -80t59 -123.5t21 -159t-21 -159z" />
<glyph unicode="R" horiz-adv-x="542" d="M560 0h-220l-113 309v-309h-203v754h197q82 0 139.5 -18.5t93.5 -51.5t52.5 -79.5t16.5 -102.5q0 -137 -115 -189zM227 408h14q40 0 61 23.5t21 66.5t-21 66t-61 23h-14v-179z" />
<glyph unicode="S" horiz-adv-x="420" d="M18 255q61 -82 130 -82q26 0 42.5 14t16.5 35q0 30 -36 59l-33 26q-66 51 -94.5 100.5t-28.5 112.5q0 52 17.5 97t48.5 78.5t73 53t90 19.5q72 0 146 -39v-230q-25 38 -56.5 60.5t-62.5 22.5q-23 0 -38.5 -13.5t-15.5 -32.5q0 -30 41 -60l33 -24q64 -47 92 -95.5 t28 -113.5q0 -56 -18 -102.5t-49.5 -81t-76 -53.5t-96.5 -19q-71 0 -153 32v236z" />
<glyph unicode="T" horiz-adv-x="446" d="M325 0h-204v573h-115v181h434v-181h-115v-573z" />
<glyph unicode="U" horiz-adv-x="554" d="M533 754v-504q0 -65 -18.5 -114t-52 -82t-80.5 -50t-104 -17t-104.5 17t-81 50t-52.5 82t-19 114v504h204v-486q0 -51 12 -71t41 -20t40 20t11 71v486h204z" />
<glyph unicode="V" horiz-adv-x="550" d="M378 0h-207l-189 754h214l37 -215q11 -63 23 -131t19 -146q7 78 19 146t23 131l37 215h214z" />
<glyph unicode="W" horiz-adv-x="816" d="M666 0h-190l-38 264l-6 38t-6 43t-7.5 54.5t-10.5 72.5q-6 -42 -10.5 -72.5t-7.5 -54.5t-6 -43l-6 -38l-38 -264h-190l-168 754h199l37 -234q8 -49 14 -109t12 -138q18 174 42 300l34 181h176l34 -181q24 -128 42 -300q6 78 12 138t14 109l37 234h199z" />
<glyph unicode="X" horiz-adv-x="548" d="M566 0h-226l-36 99q-19 54 -30 103q-6 -23 -13.5 -48.5t-18.5 -54.5l-38 -99h-222l183 391l-173 363h227l34 -102q5 -14 10 -33.5t11 -42.5q6 24 11.5 43t9.5 32l30 103h228l-172 -363z" />
<glyph unicode="Y" horiz-adv-x="530" d="M373 0h-204v319l-187 435h212l37 -112q11 -32 19.5 -62.5t15.5 -58.5q7 28 15 58.5t19 62.5l37 112h211l-175 -435v-319z" />
<glyph unicode="Z" horiz-adv-x="528" d="M501 0h-519v20l176 400q27 62 48 98t37 59h-216v177h499v-20l-185 -412q-17 -39 -36 -76.5t-36 -73.5q18 7 36 8t38 1h158v-181z" />
<glyph unicode="[" horiz-adv-x="288" d="M288 -100v-135h-288v1060h288v-135h-116v-790h116z" />
<glyph unicode="\" horiz-adv-x="390" d="M378 0l-119 -13l-247 767l121 14z" />
<glyph unicode="]" horiz-adv-x="288" d="M0 690v135h288v-1060h-288v135h116v790h-116z" />
<glyph unicode="^" horiz-adv-x="552" d="M187 381h-187l158 379h236l158 -379h-187l-89 234z" />
<glyph unicode="_" horiz-adv-x="580" d="M24 124h532v-124h-532v124z" />
<glyph unicode="`" horiz-adv-x="211" d="M211 600h-112l-99 167h158z" />
<glyph unicode="a" horiz-adv-x="487" d="M487 0h-196v30q0 11 1 26t3 33q-51 -100 -134 -100q-38 0 -68 19.5t-50.5 55t-31.5 86.5t-11 114t11.5 114t33 86.5t52 55t69.5 19.5t72 -23.5t57 -71.5q-2 18 -3 31.5t-1 24.5v28h196v-528zM203 264q0 -55 12 -84t35 -29t35 29t12 84t-12 84t-35 29t-35 -29t-12 -84z " />
<glyph unicode="b" horiz-adv-x="487" d="M0 0v825h196v-289q0 -38 -3 -84q14 24 27 41t27.5 27t31.5 14.5t39 4.5q78 0 123.5 -70.5t45.5 -204.5q0 -129 -45 -202t-124 -73q-39 0 -67.5 17.5t-57.5 64.5q1 -9 2 -22.5t1 -18.5v-30h-196zM190 264q0 -55 12 -84t35 -29t35 29t12 84t-12 84t-35 29t-35 -29t-12 -84z " />
<glyph unicode="c" horiz-adv-x="290" d="M290 -8q-36 -3 -53 -3q-53 0 -96.5 21t-75 58t-48.5 87t-17 109q0 58 19 108.5t52 87.5t79 58t100 21q13 0 40 -3v-177q-8 3 -18 3q-30 0 -49.5 -27.5t-19.5 -70.5t19.5 -71t49.5 -28q10 0 18 3v-176z" />
<glyph unicode="d" horiz-adv-x="487" d="M291 0v30q0 5 1 18.5t2 22.5q-29 -47 -57.5 -64.5t-67.5 -17.5q-79 0 -124 73t-45 202q0 134 45.5 204.5t123.5 70.5q22 0 39 -4.5t31.5 -14.5t27.5 -27t27 -41q-3 46 -3 84v289h196v-825h-196zM297 264q0 55 -12 84t-35 29t-35 -29t-12 -84t12 -84t35 -29t35 29t12 84z " />
<glyph unicode="e" horiz-adv-x="489" d="M479 170q-6 -41 -27 -74t-52.5 -57t-71.5 -37t-83 -13q-54 0 -99.5 19.5t-77.5 55.5t-50 86.5t-18 113.5t18 113.5t50 86.5t77.5 55.5t99.5 19.5t99 -19t77.5 -54.5t50 -86.5t17.5 -115q0 -8 -0.5 -20.5t-0.5 -20.5h-296q2 -42 17 -64t36 -22q34 0 45 39zM298 322 q-4 29 -16.5 49t-36.5 20t-36.5 -20t-16.5 -49h106z" />
<glyph unicode="f" horiz-adv-x="323" d="M252 0h-194v370h-58v158h58v97q0 102 44 155t129 53q38 0 92 -14v-182q-26 19 -40 19q-31 0 -31 -54v-74h71v-158h-71v-370z" />
<glyph unicode="g" horiz-adv-x="487" d="M487 -15q0 -109 -62.5 -169.5t-180.5 -60.5q-109 0 -165.5 45.5t-70.5 145.5h198q3 -45 43 -45q44 0 44 77v89q-25 -38 -53.5 -56t-68.5 -18q-38 0 -69.5 19.5t-54 55.5t-35 86t-12.5 110t11.5 110.5t33.5 87t53.5 57t71.5 20.5q35 0 63 -19t60 -67q-1 10 -2 22.5 t-1 22.5v30h197v-543zM203 267q0 -55 12 -84t35 -29t35 29t12 84t-12 84t-35 29t-35 -29t-12 -84z" />
<glyph unicode="h" horiz-adv-x="465" d="M269 0v276q0 39 -7.5 53.5t-26.5 14.5q-39 0 -39 -78v-266h-196v825h196v-327q0 -13 -0.5 -31t-3.5 -44q27 57 59.5 86.5t78.5 29.5q66 0 100.5 -49t34.5 -130v-360h-196z" />
<glyph unicode="i" horiz-adv-x="228" d="M212 0h-196v528h196v-528zM0 691q0 24 9 44.5t24.5 36.5t36 25t44.5 9t44.5 -9t36 -25t24.5 -36.5t9 -44.5t-9 -44.5t-24.5 -36t-36 -24.5t-44.5 -9t-44.5 9t-36 24.5t-24.5 36t-9 44.5z" />
<glyph unicode="j" horiz-adv-x="228" d="M212 -231h-196v759h196v-759zM0 691q0 24 9 44.5t24.5 36.5t36 25t44.5 9t44.5 -9t36 -25t24.5 -36.5t9 -44.5t-9 -44.5t-24.5 -36t-36 -24.5t-44.5 -9t-44.5 9t-36 24.5t-24.5 36t-9 44.5z" />
<glyph unicode="k" horiz-adv-x="515" d="M289 0l-75 205q-3 7 -7 22t-11 38v-265h-196v825h196v-535q7 20 14.5 40.5t15.5 41.5l63 156h212l-129 -242l143 -286h-226z" />
<glyph unicode="l" horiz-adv-x="196" d="M196 0h-196v825h196v-825z" />
<glyph unicode="m" horiz-adv-x="735" d="M539 0v276q0 39 -8 56t-27 17t-29 -22t-10 -61v-266h-196v276q0 39 -7.5 53.5t-26.5 14.5q-39 0 -39 -78v-266h-196v528h196v-28q0 -13 -0.5 -25.5t-3.5 -38.5q27 57 59.5 80t78.5 23q93 0 129 -107q27 54 60.5 80.5t79.5 26.5q63 0 99.5 -49t36.5 -130v-360h-196z" />
<glyph unicode="n" horiz-adv-x="465" d="M269 0v276q0 39 -7.5 53.5t-26.5 14.5q-39 0 -39 -78v-266h-196v528h196v-30q0 -13 -0.5 -31t-3.5 -44q27 57 59.5 86.5t78.5 29.5q66 0 100.5 -49t34.5 -130v-360h-196z" />
<glyph unicode="o" horiz-adv-x="490" d="M490 264q0 -63 -17.5 -113.5t-49.5 -86.5t-77.5 -55.5t-100.5 -19.5q-56 0 -101 19.5t-77 55.5t-49.5 86.5t-17.5 113.5t17.5 113.5t49.5 86.5t77 55.5t101 19.5q55 0 100.5 -19.5t77.5 -55.5t49.5 -86.5t17.5 -113.5zM301 264q0 63 -16 95.5t-40 32.5t-39.5 -32.5 t-15.5 -95.5t15.5 -95.5t39.5 -32.5t40 32.5t16 95.5z" />
<glyph unicode="p" horiz-adv-x="487" d="M196 528v-30q0 -10 -1 -22.5t-2 -22.5q29 48 57.5 67t67.5 19q79 0 124 -73t45 -202q0 -134 -45.5 -204.5t-123.5 -70.5q-22 0 -39 4t-31 13.5t-27 25t-28 39.5q0 -5 0.5 -12.5t1 -15.5t1 -14.5t0.5 -8.5v-255h-196v763h196zM190 264q0 -55 12 -84t35 -29t35 29t12 84 t-12 84t-35 29t-35 -29t-12 -84z" />
<glyph unicode="q" horiz-adv-x="487" d="M487 528v-763h-196v255q0 2 0.5 8.5t1 14.5t1 15.5t0.5 12.5q-15 -24 -28 -39.5t-27 -25t-31 -13.5t-39 -4q-78 0 -123.5 70.5t-45.5 204.5q0 129 45 202t124 73q39 0 67.5 -19t57.5 -67q-1 10 -2 22.5t-1 22.5v30h196zM250 377q-23 0 -35 -29t-12 -84t12 -84t35 -29 t35 29t12 84t-12 84t-35 29z" />
<glyph unicode="r" horiz-adv-x="341" d="M0 0v528h196v-28q0 -13 -0.5 -32t-3.5 -45q10 22 23.5 43t30.5 37t38 26t46 10h11v-220q-17 11 -32.5 15t-28.5 4q-39 0 -61.5 -28.5t-22.5 -82.5v-227h-196z" />
<glyph unicode="s" horiz-adv-x="398" d="M68 189q51 -54 100 -54q38 0 38 27q0 24 -51 42q-139 49 -139 155q0 39 16.5 72t46 57t69 37.5t85.5 13.5q78 0 157 -43l-66 -140q-20 21 -42.5 32t-38.5 11q-12 0 -23.5 -5t-11.5 -18q0 -17 15.5 -27t44.5 -23q34 -15 59 -29.5t40.5 -32t23 -39t7.5 -51.5q0 -41 -16 -75 t-44 -58.5t-67 -38t-84 -13.5q-24 0 -44 2t-41 8t-45.5 17t-56.5 28z" />
<glyph unicode="t" horiz-adv-x="319" d="M250 0h-194v370h-56v158h56v155h194v-155h69v-158h-69v-370z" />
<glyph unicode="u" horiz-adv-x="475" d="M196 528v-298q0 -39 8 -58.5t34 -19.5t33.5 19.5t7.5 58.5v298h196v-324q0 -50 -16.5 -90t-47.5 -68t-75 -42.5t-98 -14.5t-98 14.5t-75 42.5t-48 68t-17 90v324h196z" />
<glyph unicode="v" horiz-adv-x="504" d="M346 0h-204l-142 528h196l30 -165q5 -30 12 -71t14 -98q7 57 14 98t12 71l30 165h196z" />
<glyph unicode="w" horiz-adv-x="770" d="M629 0h-191l-33 184q-6 33 -11.5 69t-8.5 69q-3 -33 -8 -69t-11 -69l-34 -184h-189l-143 528h192l30 -170q5 -32 10 -68.5t10 -79.5q5 45 11 85.5t15 78.5l34 154h166l34 -154q8 -38 14.5 -78.5t11.5 -85.5q5 43 9.5 79.5t10.5 68.5l30 170h192z" />
<glyph unicode="x" horiz-adv-x="545" d="M545 0h-226l-20 49q-7 16 -13.5 33t-14.5 43q-7 -19 -14.5 -37.5t-15.5 -38.5l-21 -49h-220l161 274l-152 254h223l19 -57q4 -11 9 -23.5t11 -33.5q7 21 11 33.5t9 23.5l22 57h217l-156 -254z" />
<glyph unicode="y" horiz-adv-x="516" d="M273 -221h-194l79 241l-158 508h195l37 -152q8 -31 13 -66.5t11 -78.5q5 43 10.5 75.5t14.5 69.5l38 152h197z" />
<glyph unicode="z" horiz-adv-x="454" d="M425 0h-425l128 274l22 44t28 52h-149v158h425l-124 -269q-11 -24 -24 -48.5t-28 -50.5h147v-160z" />
<glyph unicode="{" horiz-adv-x="338" d="M157 295q18 -12 31 -25t21.5 -29.5t12.5 -38.5t4 -52v-170q0 -26 2.5 -42t11 -24.5t24.5 -11t42 -2.5h32v-135h-92q-51 0 -86 9t-56.5 29t-31.5 52.5t-10 79.5v200q0 24 -3 40.5t-10 27t-19 17t-30 10.5v130q18 4 30 10t19 16.5t10 27t3 40.5v201q0 47 10 79.5t31.5 52.5 t56.5 29t86 9h92v-135h-32q-26 0 -42 -2.5t-24.5 -11t-11 -24.5t-2.5 -42v-170q0 -30 -4 -52t-12.5 -38.5t-21.5 -29.5t-31 -25z" />
<glyph unicode="|" horiz-adv-x="172" d="M0 754h172v-942h-172v942z" />
<glyph unicode="}" horiz-adv-x="338" d="M181 295q-18 12 -31 25t-21.5 29.5t-12.5 38.5t-4 52v170q0 26 -2.5 42t-11 24.5t-24.5 11t-42 2.5h-32v135h92q51 0 86 -9t56.5 -29t31.5 -52.5t10 -79.5v-201q0 -24 3 -40.5t10 -27t19 -16.5t30 -10v-130q-18 -4 -30 -10.5t-19 -17t-10 -27t-3 -40.5v-200 q0 -47 -10 -79.5t-31.5 -52.5t-56.5 -29t-86 -9h-92v135h32q26 0 42 2.5t24.5 11t11 24.5t2.5 42v170q0 30 4 52t12.5 38.5t21.5 29.5t31 25z" />
<glyph unicode="~" horiz-adv-x="545" d="M0 693q62 146 165 146q39 0 128 -40q69 -30 92 -30q49 0 89 73l71 -59q-32 -79 -72.5 -111.5t-102.5 -32.5q-18 0 -48 11t-78 32q-29 14 -51 20t-34 6q-46 0 -87 -74z" />
<glyph horiz-adv-x="530" d="M15 487h43q13 65 40.5 117t66 88.5t87.5 56t105 19.5q13 0 35.5 -2.5t46 -7t45 -11t34.5 -14.5l-49 -181q-35 27 -83 27q-43 0 -71.5 -23.5t-43.5 -68.5h181l-21 -81h-175v-29v-15.5t1 -15.5h158l-21 -81h-121q31 -82 113 -82q26 0 45.5 6.5t37.5 20.5l49 -188 q-13 -8 -34.5 -14.5t-45 -11t-46 -7t-35.5 -2.5q-56 0 -104.5 19t-87.5 55t-66.5 87.5t-40.5 116.5h-43v81h34q-1 8 -1 15.5v15.5v29h-33v81z" />
<glyph unicode="&#xa1;" horiz-adv-x="265" d="M235 0h-205l16 498h173zM18 651q0 24 9 44.5t24.5 36t36 24.5t44.5 9t44.5 -9t36.5 -24.5t25 -36t9 -44.5t-9 -44.5t-25 -36.5t-36.5 -25t-44.5 -9t-44.5 9t-36 25t-24.5 36.5t-9 44.5z" />
<glyph unicode="&#xa2;" horiz-adv-x="290" d="M290 107q-36 -3 -54 -3v-85h-95v106q-33 15 -59 41t-44 60t-28 74t-10 84q0 85 37.5 148.5t103.5 95.5v106h95v-81q3 1 14 1q13 0 40 -3v-177q-8 3 -18 3q-30 0 -49.5 -27.5t-19.5 -70.5t19.5 -71t49.5 -28q10 0 18 3v-176z" />
<glyph unicode="&#xa3;" horiz-adv-x="512" d="M512 125q-53 -138 -179 -138q-26 0 -51 6.5t-48.5 14.5t-44 14.5t-36.5 6.5q-43 0 -97 -33l-56 92q49 35 88 54q21 36 21 76q0 39 -20 108h-70v105h37l-5 18q-21 73 -21 113q0 43 17 80.5t46.5 64.5t70 42.5t87.5 15.5q122 0 220 -105l-109 -108q-36 56 -75 56 q-20 0 -37 -16t-17 -42q0 -7 4 -26.5t15 -50.5q7 -23 9 -42h183v-105h-170v-14q0 -71 -49 -132q19 -1 37 -7t33.5 -12.5t29.5 -11.5t25 -5q35 0 61 36z" />
<glyph unicode="&#xa4;" horiz-adv-x="744" d="M0 135l118 118q-40 70 -40 147q0 74 43 150l-121 121l102 101l122 -122q77 41 148 41q73 0 146 -40l121 120l101 -101l-119 -118q46 -76 46 -152q0 -69 -41 -146l118 -118l-100 -101l-118 117q-75 -45 -153 -45q-75 0 -155 44l-118 -116zM374 524q-26 0 -49 -10 t-39.5 -26.5t-26 -39.5t-9.5 -48t9.5 -47t26 -39t38.5 -27t48 -10t48.5 10t39 27t26 39.5t9.5 47.5t-10 47.5t-26.5 39t-38.5 26.5t-46 10z" />
<glyph unicode="&#xa5;" horiz-adv-x="566" d="M427 409l-30 -75h163v-82h-169v-252h-204v252h-180v82h173l-32 75h-141v81h106l-113 264h212l37 -112q11 -32 19.5 -62.5t15.5 -58.5q7 28 15 58.5t19 62.5l37 112h211l-106 -264h100v-81h-133z" />
<glyph unicode="&#xa6;" horiz-adv-x="172" d="M0 754h172v-409h-172v409zM0 173h172v-361h-172v361z" />
<glyph unicode="&#xa7;" horiz-adv-x="506" d="M169 9q0 -57 18.5 -80.5t61.5 -23.5q31 0 49.5 18.5t18.5 47.5q0 13 -3 22.5t-13 19t-28.5 21t-49.5 28.5q-69 36 -111.5 63.5t-66.5 54t-32.5 55.5t-8.5 69q0 96 81 159q-19 22 -31 40.5t-19 36t-10 36t-3 39.5q0 46 17.5 85.5t49 68t75.5 45t97 16.5t94.5 -13.5 t69.5 -43.5t42.5 -78.5t14.5 -118.5h-161q0 64 -15.5 90t-57.5 26q-62 0 -62 -57q0 -25 16.5 -42.5t58.5 -39.5l74 -38q46 -24 77 -46.5t50 -46.5t27.5 -51t8.5 -59q0 -92 -74 -152q82 -66 82 -163q0 -51 -20.5 -95t-55.5 -75.5t-82 -49.5t-100 -18t-98.5 13t-78.5 42 t-52 77t-19 118h169zM251 232q34 0 54 20t20 54t-20 53.5t-54 19.5t-54 -19.5t-20 -51.5t21 -54t53 -22z" />
<glyph unicode="&#xa8;" horiz-adv-x="381" d="M217 679q0 35 23.5 59t58.5 24t58.5 -24t23.5 -59t-23.5 -58.5t-58.5 -23.5t-58.5 23.5t-23.5 58.5zM0 679q0 35 23.5 59t58.5 24t58.5 -24t23.5 -59t-23.5 -58.5t-58.5 -23.5t-58.5 23.5t-23.5 58.5z" />
<glyph unicode="&#xa9;" horiz-adv-x="814" d="M412 689q-63 0 -119 -24t-98 -66.5t-66.5 -99.5t-24.5 -123q0 -64 24 -120.5t65.5 -99t96.5 -67t117 -24.5t117 24.5t96 67t65 99t24 121.5q0 63 -23.5 119.5t-64 99.5t-94.5 68t-115 25zM413 771q78 0 148 -31.5t123 -85.5t84 -125.5t31 -152.5t-31.5 -152.5t-85 -125 t-124.5 -84.5t-150 -31q-80 0 -151.5 31t-125 84.5t-85 125t-31.5 152.5q0 82 31 154.5t85 125.5t126.5 84t155.5 31zM557 171q-26 -10 -59 -18.5t-71 -8.5q-51 0 -94.5 18t-75.5 49t-50.5 72.5t-18.5 89.5q0 49 19 92t51.5 75.5t76.5 51t95 18.5q34 0 64.5 -5t59.5 -14 l6 -181l-13 8q-23 14 -43.5 25.5t-47.5 11.5q-16 0 -30.5 -6t-26 -16.5t-18 -24.5t-6.5 -30q0 -33 24.5 -56t59.5 -23q23 0 44 9t44 25l13 9z" />
<glyph unicode="&#xaa;" horiz-adv-x="278" d="M278 445h-113v15q0 18 3 36q-28 -58 -77 -58q-43 0 -67 43t-24 115t24.5 115t69.5 43q47 0 74 -55q-1 10 -2 17.5t-1 15.5v15h113v-302zM164 596q0 66 -26 66t-26 -66q0 -64 26 -64t26 64zM278 332h-278v60h278v-60z" />
<glyph unicode="&#xab;" horiz-adv-x="486" d="M172 44l-172 227l172 228l88 -66l-129 -162l129 -161zM398 44l-172 227l172 228l88 -66l-128 -162l128 -161z" />
<glyph unicode="&#xac;" horiz-adv-x="490" d="M281 0v149h-281v188h490v-337h-209z" />
<glyph unicode="&#xad;" horiz-adv-x="245" d="M245 196h-245v151h245v-151z" />
<glyph unicode="&#xae;" horiz-adv-x="814" d="M412 689q-63 0 -119 -24t-98 -66.5t-66.5 -99.5t-24.5 -123q0 -64 24 -120.5t65.5 -99t96.5 -67t117 -24.5t117 24.5t96 67t65 99t24 121.5q0 63 -23.5 119.5t-64 99.5t-94.5 68t-115 25zM413 771q78 0 148 -31.5t123 -85.5t84 -125.5t31 -152.5t-31.5 -152.5t-85 -125 t-124.5 -84.5t-150 -31q-80 0 -151.5 31t-125 84.5t-85 125t-31.5 152.5q0 82 31 154.5t85 125.5t126.5 84t155.5 31zM377 398h14q40 0 40 32q0 35 -34 35h-20v-67zM226 172v408h185q82 0 129 -39.5t47 -102.5q0 -37 -15 -63.5t-45 -38.5l-15 -6l117 -158h-194l-58 111v-111 h-151z" />
<glyph unicode="&#xaf;" horiz-adv-x="355" d="M0 625v110h355v-110h-355z" />
<glyph unicode="&#xb0;" horiz-adv-x="374" d="M187 671q-18 0 -33.5 -7t-27.5 -18.5t-19 -27t-7 -33.5t7 -33.5t19 -27.5t27.5 -19t33.5 -7t33.5 7t27 19t18 27.5t6.5 33.5q0 35 -24.5 60.5t-60.5 25.5zM0 585q0 39 14.5 73t40 59.5t59.5 40t73 14.5t73 -14.5t59.5 -40t40 -59.5t14.5 -73t-14.5 -73t-40 -59.5 t-59.5 -40t-73 -14.5t-73 14.5t-59.5 40t-40 59.5t-14.5 73z" />
<glyph unicode="&#xb1;" horiz-adv-x="528" d="M0 326v117h204v202h120v-202h204v-117h-204v-194h-120v194h-204zM0 -30v117h528v-117h-528z" />
<glyph unicode="&#xb2;" horiz-adv-x="329" d="M323 302h-323l128 166q21 27 35.5 47.5t23 38.5t12.5 33.5t4 32.5q0 37 -26 37q-28 0 -28 -52v-19h-124v20q0 34 11.5 62.5t32 49.5t49 32.5t61.5 11.5t61 -11.5t47.5 -31.5t30.5 -47.5t11 -58.5q0 -97 -116 -207q52 3 110 3v-107z" />
<glyph unicode="&#xb3;" horiz-adv-x="312" d="M0 438h126q0 -40 28 -40q32 0 32 39q0 45 -49 45q-4 0 -9.5 -0.5t-13.5 -1.5v101q6 -1 10.5 -1h6.5q49 0 49 43q0 35 -24 35q-9 0 -15.5 -7t-6.5 -21v-8h-125q5 67 46.5 103.5t104.5 36.5q31 0 57.5 -10t46 -28t31 -42t11.5 -52q0 -63 -54 -94q60 -35 60 -104 q0 -32 -12.5 -57.5t-33.5 -43.5t-50 -27.5t-62 -9.5t-61 9.5t-48.5 27.5t-32.5 42.5t-12 54.5v10z" />
<glyph unicode="&#xb4;" horiz-adv-x="212" d="M0 600l53 167h159l-100 -167h-112z" />
<glyph unicode="&#xb5;" horiz-adv-x="475" d="M197 -231h-197v759h196v-298q0 -39 7 -58.5t35 -19.5q25 0 33 16.5t8 61.5v298h196v-324q0 -51 -17 -90.5t-48 -67.5t-74.5 -42.5t-95.5 -14.5q-45 0 -87 15z" />
<glyph unicode="&#xb6;" horiz-adv-x="559" d="M133 -112v497q-57 0 -95 46.5t-38 127.5q0 96 46 145.5t143 49.5h370v-177h-75v-689h-131v689h-89v-689h-131z" />
<glyph unicode="&#xb7;" horiz-adv-x="232" d="M2 377q0 24 9 44.5t24.5 36t36 24.5t44.5 9t44.5 -9t36 -24.5t24.5 -36t9 -44.5t-9 -44.5t-24.5 -36t-36 -24.5t-44.5 -9t-44.5 9t-36 24.5t-24.5 36t-9 44.5z" />
<glyph unicode="&#xb8;" horiz-adv-x="203" d="M203 -112l-128 -133l-75 54l111 139z" />
<glyph unicode="&#xb9;" horiz-adv-x="178" d="M178 301h-128v344h-50v109h178v-453z" />
<glyph unicode="&#xba;" horiz-adv-x="282" d="M282 595q0 -69 -38.5 -113t-104.5 -44t-102.5 42.5t-36.5 114.5t38 115.5t101 43.5q66 0 104.5 -40.5t38.5 -118.5zM172 595q0 74 -31 74q-32 0 -32 -74q0 -72 32 -72q31 0 31 72zM278 332h-277v60h277v-60z" />
<glyph unicode="&#xbb;" horiz-adv-x="486" d="M314 44l-88 66l129 161l-129 162l88 66l172 -228zM88 44l-88 66l129 161l-129 162l88 66l172 -228z" />
<glyph unicode="&#xbc;" horiz-adv-x="818" d="M178 301h-128v344h-50v109h178v-453zM195 -50l-81 45l435 809l84 -44zM779 0h-129v90h-166v98l139 264h156v-261h39v-101h-39v-90zM655 191v82q0 5 0.5 13.5t3.5 25.5l-66 -121h62z" />
<glyph unicode="&#xbd;" horiz-adv-x="811" d="M178 301h-128v344h-50v109h178v-453zM195 -50l-81 45l435 809l84 -44zM805 0h-323l128 166q21 27 35.5 47.5t23 38.5t12.5 33.5t4 32.5q0 37 -26 37q-28 0 -28 -52v-19h-124v20q0 34 11.5 62.5t32 49.5t49 32.5t61.5 11.5t61 -11.5t47.5 -31.5t30.5 -47.5t11 -58.5 q0 -97 -116 -207q52 3 110 3v-107z" />
<glyph unicode="&#xbe;" horiz-adv-x="879" d="M0 438h126q0 -40 28 -40q32 0 32 39q0 45 -49 45q-4 0 -9.5 -0.5t-13.5 -1.5v101q6 -1 10.5 -1h6.5q49 0 49 43q0 35 -24 35q-9 0 -15.5 -7t-6.5 -21v-8h-125q5 67 46.5 103.5t104.5 36.5q31 0 57.5 -10t46 -28t31 -42t11.5 -52q0 -63 -54 -94q60 -35 60 -104 q0 -32 -12.5 -57.5t-33.5 -43.5t-50 -27.5t-62 -9.5t-61 9.5t-48.5 27.5t-32.5 42.5t-12 54.5v10zM256 -50l-81 45l435 809l84 -44zM840 0h-129v90h-166v98l139 264h156v-261h39v-101h-39v-90zM716 191v82q0 5 0.5 13.5t3.5 25.5l-66 -121h62z" />
<glyph unicode="&#xbf;" horiz-adv-x="513" d="M159 509h194v-185q-11 1 -18.5 1.5t-12.5 0.5q-57 0 -81.5 -23.5t-24.5 -69.5q0 -78 44 -78q42 0 42 80h197q0 -57 -16.5 -103t-47 -78.5t-75 -49.5t-101.5 -17q-53 0 -98 19.5t-77.5 52.5t-51 77t-18.5 93q0 78 36.5 130.5t108.5 71.5v78zM368 654q0 -24 -9 -44.5 t-24.5 -36t-36 -24.5t-44.5 -9t-44.5 9t-36 24.5t-24.5 36t-9 44.5t9 44.5t24.5 36t36 24.5t44.5 9t44.5 -9t36 -24.5t24.5 -36t9 -44.5z" />
<glyph unicode="&#xc0;" d="M571 0h-210l-17 96h-135l-17 -96h-210l174 754h242zM320 257l-29 203q-3 19 -6 45t-8 69q-5 -43 -8 -69t-6 -45l-30 -203h87zM142 946h164l57 -164h-117z" />
<glyph unicode="&#xc1;" d="M571 0h-210l-17 96h-135l-17 -96h-210l174 754h242zM320 257l-29 203q-3 19 -6 45t-8 69q-5 -43 -8 -69t-6 -45l-30 -203h87zM330 782h-117l57 164h164z" />
<glyph unicode="&#xc2;" d="M571 0h-210l-17 96h-135l-17 -96h-210l174 754h242zM320 257l-29 203q-3 19 -6 45t-8 69q-5 -43 -8 -69t-6 -45l-30 -203h87zM459 782h-128l-54 86l-54 -86h-128l100 164h164z" />
<glyph unicode="&#xc3;" d="M571 0h-210l-17 96h-135l-17 -96h-210l174 754h242zM320 257l-29 203q-3 19 -6 45t-8 69q-5 -43 -8 -69t-6 -45l-30 -203h87zM469 935v-16q0 -60 -32.5 -97.5t-86.5 -37.5q-11 0 -29 6t-38 13t-38 13t-27 6q-29 0 -30 -40h-103q0 75 29.5 112t84.5 37q15 0 33 -3.5 t38 -11.5l34 -14q8 -3 16 -5.5t16 -2.5q29 0 32 41h101z" />
<glyph unicode="&#xc4;" d="M571 0h-210l-17 96h-135l-17 -96h-210l174 754h242zM320 257l-29 203q-3 19 -6 45t-8 69q-5 -43 -8 -69t-6 -45l-30 -203h87zM454 863q0 -33 -24 -57t-57 -24q-35 0 -59 24t-24 58t24 58t58 24t58 -24.5t24 -58.5zM265 864q0 -17 -7 -32t-18 -26t-26 -17.5t-31 -6.5 q-33 0 -57 24.5t-24 57.5q0 34 24 58t57 24q34 0 58 -24t24 -58z" />
<glyph unicode="&#xc5;" d="M571 0h-210l-17 96h-135l-17 -96h-210l174 754h242zM320 257l-29 203q-3 19 -6 45t-8 69q-5 -43 -8 -69t-6 -45l-30 -203h87zM375 863q0 -20 -8 -37.5t-21 -31t-31 -21t-37 -7.5q-21 0 -39.5 8t-31.5 21.5t-20.5 31.5t-7.5 38q0 42 28 69.5t70 27.5q19 0 37 -7.5 t31.5 -21t21.5 -31.5t8 -39zM319 863q0 18 -12 30.5t-30 12.5q-17 0 -29 -12t-12 -30q0 -17 12.5 -29.5t29.5 -12.5t29 12.5t12 28.5z" />
<glyph unicode="&#xc6;" horiz-adv-x="682" d="M361 0l-17 96h-135l-17 -96h-210l174 754h425l28 -177h-158l18 -110h157l27 -171h-157l19 -115h156l29 -181h-339zM320 257l-29 203q-3 19 -6 45t-8 69q-5 -43 -7.5 -69t-5.5 -45l-31 -203h87z" />
<glyph unicode="&#xc7;" horiz-adv-x="470" d="M446 14q-68 -27 -122 -27q-68 0 -124.5 26.5t-97.5 77t-64 122.5t-23 164q0 87 23.5 159t67 123.5t105 80t137.5 28.5q26 0 50.5 -5t50.5 -14v-215q-47 45 -93 45q-66 0 -99.5 -54t-33.5 -148q0 -91 33 -142.5t96 -51.5q54 0 106 49zM220 -132q10 -17 28.5 -25.5 t32.5 -8.5q18 0 31.5 11.5t13.5 28.5q0 18 -15.5 29.5t-35.5 11.5q-12 0 -24 -4t-22 -9l14 52q6 3 24.5 7.5t38.5 4.5q47 0 79.5 -28t32.5 -73q0 -23 -10 -43t-27 -34.5t-40 -23t-49 -8.5q-22 0 -48 6t-47 19z" />
<glyph unicode="&#xc8;" horiz-adv-x="419" d="M24 0v754h378v-177h-175v-110h157v-171h-157v-115h175v-181h-378zM57 946h164l57 -164h-117z" />
<glyph unicode="&#xc9;" horiz-adv-x="419" d="M24 0v754h378v-177h-175v-110h157v-171h-157v-115h175v-181h-378zM242 782h-117l57 164h164z" />
<glyph unicode="&#xca;" horiz-adv-x="419" d="M24 0v754h378v-177h-175v-110h157v-171h-157v-115h175v-181h-378zM393 782h-128l-54 86l-54 -86h-128l100 164h164z" />
<glyph unicode="&#xcb;" horiz-adv-x="419" d="M24 0v754h378v-177h-175v-110h157v-171h-157v-115h175v-181h-378zM385 863q0 -33 -24 -57t-57 -24q-35 0 -59 24t-24 58t24 58t58 24t58 -24.5t24 -58.5zM196 864q0 -17 -7 -32t-18 -26t-26 -17.5t-31 -6.5q-33 0 -57 24.5t-24 57.5q0 34 24 58t57 24q34 0 58 -24t24 -58 z" />
<glyph unicode="&#xcc;" horiz-adv-x="251" d="M227 0h-203v754h203v-754zM0 946h160l49 -164h-114z" />
<glyph unicode="&#xcd;" horiz-adv-x="251" d="M227 0h-203v754h203v-754zM251 946l-95 -164h-114l50 164h159z" />
<glyph unicode="&#xce;" horiz-adv-x="251" d="M227 0h-203v754h203v-754zM287 782h-128l-35 77l-35 -77h-128l100 164h126z" />
<glyph unicode="&#xcf;" horiz-adv-x="251" d="M227 0h-203v754h203v-754zM292 863q0 -33 -24 -57t-57 -24q-35 0 -59 24t-24 58t24 58t58 24t58 -24.5t24 -58.5zM117 864q0 -17 -7 -32t-18 -26t-26 -17.5t-31 -6.5q-33 0 -57 24.5t-24 57.5q0 34 24 58t57 24q34 0 58 -24t24 -58z" />
<glyph unicode="&#xd0;" horiz-adv-x="586" d="M50 328h-46v117h46v309h176q87 0 152 -28.5t107.5 -79t64 -120t21.5 -150.5q0 -85 -19.5 -154.5t-60.5 -118.5t-103.5 -76t-147.5 -27h-190v328zM253 445h60v-117h-60v-146q110 6 110 189q0 91 -28.5 143t-74.5 52h-7v-121z" />
<glyph unicode="&#xd1;" horiz-adv-x="579" d="M24 0v754h194l106 -277q8 -21 15.5 -45t15 -47.5t13.5 -45.5t11 -40q-6 79 -12.5 148.5t-6.5 114.5v192h195v-754h-195l-102 277q-16 43 -29 82.5t-23 75.5q6 -79 9 -138.5t3 -104.5v-192h-194zM490 935v-16q0 -60 -32.5 -97.5t-86.5 -37.5q-11 0 -29 6t-38 13t-38 13 t-27 6q-29 0 -30 -40h-103q0 75 29.5 112t84.5 37q15 0 33 -3.5t38 -11.5l34 -14q8 -3 16 -5.5t16 -2.5q29 0 32 41h101z" />
<glyph unicode="&#xd2;" horiz-adv-x="604" d="M589 377q0 -87 -20.5 -159t-58.5 -123.5t-91 -79.5t-117 -28q-65 0 -117.5 28t-90.5 79.5t-58.5 123.5t-20.5 159t20.5 159t58.5 123.5t90.5 80t117.5 28.5q64 0 117 -28.5t91 -80t58.5 -123.5t20.5 -159zM378 377q0 97 -20 149t-56 52t-56 -52t-20 -149t20 -148.5 t56 -51.5t56 51.5t20 148.5zM155 946h164l57 -164h-117z" />
<glyph unicode="&#xd3;" horiz-adv-x="604" d="M589 377q0 -87 -20.5 -159t-58.5 -123.5t-91 -79.5t-117 -28q-65 0 -117.5 28t-90.5 79.5t-58.5 123.5t-20.5 159t20.5 159t58.5 123.5t90.5 80t117.5 28.5q64 0 117 -28.5t91 -80t58.5 -123.5t20.5 -159zM378 377q0 97 -20 149t-56 52t-56 -52t-20 -149t20 -148.5 t56 -51.5t56 51.5t20 148.5zM353 782h-117l57 164h164z" />
<glyph unicode="&#xd4;" horiz-adv-x="604" d="M589 377q0 -87 -20.5 -159t-58.5 -123.5t-91 -79.5t-117 -28q-65 0 -117.5 28t-90.5 79.5t-58.5 123.5t-20.5 159t20.5 159t58.5 123.5t90.5 80t117.5 28.5q64 0 117 -28.5t91 -80t58.5 -123.5t20.5 -159zM378 377q0 97 -20 149t-56 52t-56 -52t-20 -149t20 -148.5 t56 -51.5t56 51.5t20 148.5zM485 782h-128l-54 86l-54 -86h-128l100 164h164z" />
<glyph unicode="&#xd5;" horiz-adv-x="604" d="M589 377q0 -87 -20.5 -159t-58.5 -123.5t-91 -79.5t-117 -28q-65 0 -117.5 28t-90.5 79.5t-58.5 123.5t-20.5 159t20.5 159t58.5 123.5t90.5 80t117.5 28.5q64 0 117 -28.5t91 -80t58.5 -123.5t20.5 -159zM378 377q0 97 -20 149t-56 52t-56 -52t-20 -149t20 -148.5 t56 -51.5t56 51.5t20 148.5zM491 935v-16q0 -60 -32.5 -97.5t-86.5 -37.5q-11 0 -29 6t-38 13t-38 13t-27 6q-29 0 -30 -40h-103q0 75 29.5 112t84.5 37q15 0 33 -3.5t38 -11.5l34 -14q8 -3 16 -5.5t16 -2.5q29 0 32 41h101z" />
<glyph unicode="&#xd6;" horiz-adv-x="604" d="M589 377q0 -87 -20.5 -159t-58.5 -123.5t-91 -79.5t-117 -28q-65 0 -117.5 28t-90.5 79.5t-58.5 123.5t-20.5 159t20.5 159t58.5 123.5t90.5 80t117.5 28.5q64 0 117 -28.5t91 -80t58.5 -123.5t20.5 -159zM378 377q0 97 -20 149t-56 52t-56 -52t-20 -149t20 -148.5 t56 -51.5t56 51.5t20 148.5zM478 863q0 -33 -24 -57t-57 -24q-35 0 -59 24t-24 58t24 58t58 24t58 -24.5t24 -58.5zM289 864q0 -17 -7 -32t-18 -26t-26 -17.5t-31 -6.5q-33 0 -57 24.5t-24 57.5q0 34 24 58t57 24q34 0 58 -24t24 -58z" />
<glyph unicode="&#xd7;" horiz-adv-x="481" d="M0 539l86 86l155 -155l154 154l85 -84l-155 -154l156 -156l-87 -86l-155 155l-154 -154l-84 84l154 154z" />
<glyph unicode="&#xd8;" horiz-adv-x="603" d="M587 377q0 -87 -20.5 -159t-58.5 -123.5t-91 -79.5t-117 -28q-106 0 -177 71l-52 -71l-71 48l69 96q-27 49 -41.5 111t-14.5 135q0 87 20.5 159t58.5 123.5t90.5 80t117.5 28.5q105 0 177 -72l52 72l74 -52l-70 -96q26 -49 40 -110t14 -133zM224 346l131 181 q-20 51 -55 51q-36 0 -56 -52t-20 -149v-31zM376 377v13.5t-1 13.5l-130 -178q19 -49 55 -49t56 51.5t20 148.5z" />
<glyph unicode="&#xd9;" horiz-adv-x="554" d="M533 754v-504q0 -65 -18.5 -114t-52 -82t-80.5 -50t-104 -17t-104.5 17t-81 50t-52.5 82t-19 114v504h204v-486q0 -51 12 -71t41 -20t40 20t11 71v486h204zM124 946h164l57 -164h-117z" />
<glyph unicode="&#xda;" horiz-adv-x="554" d="M533 754v-504q0 -65 -18.5 -114t-52 -82t-80.5 -50t-104 -17t-104.5 17t-81 50t-52.5 82t-19 114v504h204v-486q0 -51 12 -71t41 -20t40 20t11 71v486h204zM329 782h-117l57 164h164z" />
<glyph unicode="&#xdb;" horiz-adv-x="554" d="M533 754v-504q0 -65 -18.5 -114t-52 -82t-80.5 -50t-104 -17t-104.5 17t-81 50t-52.5 82t-19 114v504h204v-486q0 -51 12 -71t41 -20t40 20t11 71v486h204zM459 782h-128l-54 86l-54 -86h-128l100 164h164z" />
<glyph unicode="&#xdc;" horiz-adv-x="554" d="M533 754v-504q0 -65 -18.5 -114t-52 -82t-80.5 -50t-104 -17t-104.5 17t-81 50t-52.5 82t-19 114v504h204v-486q0 -51 12 -71t41 -20t40 20t11 71v486h204zM454 863q0 -33 -24 -57t-57 -24q-35 0 -59 24t-24 58t24 58t58 24t58 -24.5t24 -58.5zM265 864q0 -17 -7 -32 t-18 -26t-26 -17.5t-31 -6.5q-33 0 -57 24.5t-24 57.5q0 34 24 58t57 24q34 0 58 -24t24 -58z" />
<glyph unicode="&#xdd;" horiz-adv-x="566" d="M391 0h-204v319l-187 435h212l37 -112q11 -32 19.5 -62.5t15.5 -58.5q7 28 15 58.5t19 62.5l37 112h211l-175 -435v-319zM347 782h-117l57 164h164z" />
<glyph unicode="&#xde;" horiz-adv-x="528" d="M227 0h-203v754h203v-106h32q128 0 196.5 -68t68.5 -185q0 -57 -15 -103.5t-47.5 -79.5t-82.5 -51.5t-120 -18.5h-32v-142zM227 311h10q37 0 59 23t22 61t-21.5 63.5t-54.5 25.5q-3 0 -6.5 -0.5t-8.5 -0.5v-172z" />
<glyph unicode="&#xdf;" horiz-adv-x="502" d="M0 0v528q0 89 17.5 147.5t49 92.5t76 47.5t98.5 13.5q51 0 93.5 -17t73 -46t47 -68.5t16.5 -84.5q0 -58 -29 -98t-77 -53q23 -9 47.5 -27t44.5 -44t32.5 -59t12.5 -73q0 -57 -16 -106.5t-44 -86t-67 -57t-84 -20.5q-13 0 -23 1t-22 3v154q27 5 39 34t12 78t-12 78.5 t-39 34.5v155q39 0 39 65q0 63 -44 63q-21 0 -34 -13.5t-13 -54.5v-587h-194z" />
<glyph unicode="&#xe0;" horiz-adv-x="487" d="M487 0h-196v30q0 11 1 26t3 33q-51 -100 -134 -100q-38 0 -68 19.5t-50.5 55t-31.5 86.5t-11 114t11.5 114t33 86.5t52 55t69.5 19.5t72 -23.5t57 -71.5q-2 18 -3 31.5t-1 24.5v28h196v-528zM203 264q0 -55 12 -84t35 -29t35 29t12 84t-12 84t-35 29t-35 -29t-12 -84z M334 600h-112l-99 167h158z" />
<glyph unicode="&#xe1;" horiz-adv-x="487" d="M487 0h-196v30q0 11 1 26t3 33q-51 -100 -134 -100q-38 0 -68 19.5t-50.5 55t-31.5 86.5t-11 114t11.5 114t33 86.5t52 55t69.5 19.5t72 -23.5t57 -71.5q-2 18 -3 31.5t-1 24.5v28h196v-528zM203 264q0 -55 12 -84t35 -29t35 29t12 84t-12 84t-35 29t-35 -29t-12 -84z M198 600l53 167h159l-100 -167h-112z" />
<glyph unicode="&#xe2;" horiz-adv-x="487" d="M487 0h-196v30q0 11 1 26t3 33q-51 -100 -134 -100q-38 0 -68 19.5t-50.5 55t-31.5 86.5t-11 114t11.5 114t33 86.5t52 55t69.5 19.5t72 -23.5t57 -71.5q-2 18 -3 31.5t-1 24.5v28h196v-528zM203 264q0 -55 12 -84t35 -29t35 29t12 84t-12 84t-35 29t-35 -29t-12 -84z M434 600h-143l-41 76l-43 -76h-117l87 156h177z" />
<glyph unicode="&#xe3;" horiz-adv-x="487" d="M487 0h-196v30q0 11 1 26t3 33q-51 -100 -134 -100q-38 0 -68 19.5t-50.5 55t-31.5 86.5t-11 114t11.5 114t33 86.5t52 55t69.5 19.5t72 -23.5t57 -71.5q-2 18 -3 31.5t-1 24.5v28h196v-528zM203 264q0 -55 12 -84t35 -29t35 29t12 84t-12 84t-35 29t-35 -29t-12 -84z M455 752v-16q0 -60 -32.5 -97t-86.5 -37q-34 0 -85 23q-32 15 -48 15q-27 0 -30 -40h-103q0 73 30 111t85 38q32 0 71 -16l34 -14q8 -3 16 -5.5t16 -2.5q29 0 32 41h101z" />
<glyph unicode="&#xe4;" horiz-adv-x="487" d="M487 0h-196v30q0 11 1 26t3 33q-51 -100 -134 -100q-38 0 -68 19.5t-50.5 55t-31.5 86.5t-11 114t11.5 114t33 86.5t52 55t69.5 19.5t72 -23.5t57 -71.5q-2 18 -3 31.5t-1 24.5v28h196v-528zM203 264q0 -55 12 -84t35 -29t35 29t12 84t-12 84t-35 29t-35 -29t-12 -84z M289 679q0 35 23.5 59t58.5 24t58.5 -24t23.5 -59t-23.5 -58.5t-58.5 -23.5t-58.5 23.5t-23.5 58.5zM72 679q0 35 23.5 59t58.5 24t58.5 -24t23.5 -59t-23.5 -58.5t-58.5 -23.5t-58.5 23.5t-23.5 58.5z" />
<glyph unicode="&#xe5;" horiz-adv-x="487" d="M487 0h-196v30q0 11 1 26t3 33q-51 -100 -134 -100q-38 0 -68 19.5t-50.5 55t-31.5 86.5t-11 114t11.5 114t33 86.5t52 55t69.5 19.5t72 -23.5t57 -71.5q-2 18 -3 31.5t-1 24.5v28h196v-528zM203 264q0 -55 12 -84t35 -29t35 29t12 84t-12 84t-35 29t-35 -29t-12 -84z M383 699q0 -22 -8.5 -41.5t-23.5 -34t-34.5 -23t-41.5 -8.5q-23 0 -42.5 8.5t-34.5 23t-23.5 34t-8.5 42.5q0 22 8.5 42t23 35t34 23.5t42.5 8.5t43 -9t34.5 -24t23 -35t8.5 -42zM319 700q0 20 -13 33.5t-32 13.5q-20 0 -33 -13.5t-13 -33.5q0 -19 13 -32.5t33 -13.5 q19 0 32 13.5t13 32.5z" />
<glyph unicode="&#xe6;" horiz-adv-x="771" d="M761 170q-6 -41 -27 -74t-52.5 -57t-71.5 -37t-83 -13q-23 0 -48 5t-49 14.5t-43.5 22t-30.5 27.5q-23 -28 -62 -48.5t-107 -20.5q-43 0 -77.5 13.5t-59 38t-37.5 58t-13 72.5q0 81 49.5 127t137.5 46q21 0 53.5 -9.5t61.5 -38.5v31q0 30 -30.5 50t-84.5 20 q-33 0 -63.5 -5.5t-65.5 -21.5v146q45 12 84 17.5t74 5.5q40 0 84.5 -10t84.5 -34q29 21 64.5 32.5t77.5 11.5q54 0 99 -19t77.5 -54.5t50 -86.5t17.5 -115q0 -8 -0.5 -20.5t-0.5 -20.5h-296q2 -42 17 -64t36 -22q34 0 45 39zM291 171q0 26 -13.5 46.5t-36.5 20.5 t-36.5 -20.5t-13.5 -46.5t13.5 -45.5t36.5 -19.5t36.5 19.5t13.5 45.5zM580 322q-4 29 -16.5 49t-36.5 20t-36.5 -20t-16.5 -49h106z" />
<glyph unicode="&#xe7;" horiz-adv-x="290" d="M290 -8q-36 -3 -53 -3q-53 0 -96.5 21t-75 58t-48.5 87t-17 109q0 58 19 108.5t52 87.5t79 58t100 21q13 0 40 -3v-177q-8 3 -18 3q-30 0 -49.5 -27.5t-19.5 -70.5t19.5 -71t49.5 -28q10 0 18 3v-176zM271 -112l-128 -133l-75 54l111 139z" />
<glyph unicode="&#xe8;" horiz-adv-x="489" d="M479 170q-6 -41 -27 -74t-52.5 -57t-71.5 -37t-83 -13q-54 0 -99.5 19.5t-77.5 55.5t-50 86.5t-18 113.5t18 113.5t50 86.5t77.5 55.5t99.5 19.5t99 -19t77.5 -54.5t50 -86.5t17.5 -115q0 -8 -0.5 -20.5t-0.5 -20.5h-296q2 -42 17 -64t36 -22q34 0 45 39zM298 322 q-4 29 -16.5 49t-36.5 20t-36.5 -20t-16.5 -49h106zM314 600h-112l-99 167h158z" />
<glyph unicode="&#xe9;" horiz-adv-x="489" d="M479 170q-6 -41 -27 -74t-52.5 -57t-71.5 -37t-83 -13q-54 0 -99.5 19.5t-77.5 55.5t-50 86.5t-18 113.5t18 113.5t50 86.5t77.5 55.5t99.5 19.5t99 -19t77.5 -54.5t50 -86.5t17.5 -115q0 -8 -0.5 -20.5t-0.5 -20.5h-296q2 -42 17 -64t36 -22q34 0 45 39zM298 322 q-4 29 -16.5 49t-36.5 20t-36.5 -20t-16.5 -49h106zM174 600l53 167h159l-100 -167h-112z" />
<glyph unicode="&#xea;" horiz-adv-x="489" d="M479 170q-6 -41 -27 -74t-52.5 -57t-71.5 -37t-83 -13q-54 0 -99.5 19.5t-77.5 55.5t-50 86.5t-18 113.5t18 113.5t50 86.5t77.5 55.5t99.5 19.5t99 -19t77.5 -54.5t50 -86.5t17.5 -115q0 -8 -0.5 -20.5t-0.5 -20.5h-296q2 -42 17 -64t36 -22q34 0 45 39zM298 322 q-4 29 -16.5 49t-36.5 20t-36.5 -20t-16.5 -49h106zM414 600h-143l-41 76l-43 -76h-117l87 156h177z" />
<glyph unicode="&#xeb;" horiz-adv-x="489" d="M479 170q-6 -41 -27 -74t-52.5 -57t-71.5 -37t-83 -13q-54 0 -99.5 19.5t-77.5 55.5t-50 86.5t-18 113.5t18 113.5t50 86.5t77.5 55.5t99.5 19.5t99 -19t77.5 -54.5t50 -86.5t17.5 -115q0 -8 -0.5 -20.5t-0.5 -20.5h-296q2 -42 17 -64t36 -22q34 0 45 39zM298 322 q-4 29 -16.5 49t-36.5 20t-36.5 -20t-16.5 -49h106zM269 679q0 35 23.5 59t58.5 24t58.5 -24t23.5 -59t-23.5 -58.5t-58.5 -23.5t-58.5 23.5t-23.5 58.5zM52 679q0 35 23.5 59t58.5 24t58.5 -24t23.5 -59t-23.5 -58.5t-58.5 -23.5t-58.5 23.5t-23.5 58.5z" />
<glyph unicode="&#xec;" horiz-adv-x="241" d="M241 0h-196v528h196v-528zM211 600h-112l-99 167h158z" />
<glyph unicode="&#xed;" horiz-adv-x="242" d="M196 0h-196v528h196v-528zM31 600l53 167h158l-99 -167h-112z" />
<glyph unicode="&#xee;" horiz-adv-x="329" d="M262 0h-196v528h196v-528zM329 600h-144l-32 76l-37 -76h-116l79 156h176z" />
<glyph unicode="&#xef;" horiz-adv-x="327" d="M261 0h-196v528h196v-528zM0 672q0 30 21 51t51 21t51 -21t21 -51t-21 -51t-51 -21t-51 21t-21 51zM183 672q0 30 21 51t51 21t51 -21t21 -51t-21 -51t-51 -21t-51 21t-21 51z" />
<glyph unicode="&#xf0;" horiz-adv-x="492" d="M67 827q84 -22 170 -75l129 72l40 -74l-94 -52q180 -158 180 -418q0 -139 -63.5 -215t-183.5 -76q-57 0 -102.5 19.5t-77 55t-48.5 86t-17 113.5q0 60 17.5 111t48.5 87.5t74.5 57t95.5 20.5q-12 27 -25 49.5t-28 40.5l-123 -68l-40 71l103 57l-17 11q-26 17 -48 27.5 t-42 20.5zM301 261q0 60 -15 95t-41 35q-23 0 -39 -33.5t-16 -94.5q0 -60 15.5 -93.5t39.5 -33.5q13 0 23.5 10.5t17.5 27.5t11 40t4 47z" />
<glyph unicode="&#xf1;" horiz-adv-x="465" d="M269 0v276q0 39 -7.5 53.5t-26.5 14.5q-39 0 -39 -78v-266h-196v528h196v-30q0 -13 -0.5 -31t-3.5 -44q27 57 59.5 86.5t78.5 29.5q66 0 100.5 -49t34.5 -130v-360h-196zM425 752v-16q0 -60 -32.5 -97t-86.5 -37q-34 0 -85 23q-32 15 -48 15q-27 0 -30 -40h-103 q0 73 30 111t85 38q32 0 71 -16l34 -14q8 -3 16 -5.5t16 -2.5q29 0 32 41h101z" />
<glyph unicode="&#xf2;" horiz-adv-x="490" d="M490 264q0 -63 -17.5 -113.5t-49.5 -86.5t-77.5 -55.5t-100.5 -19.5q-56 0 -101 19.5t-77 55.5t-49.5 86.5t-17.5 113.5t17.5 113.5t49.5 86.5t77 55.5t101 19.5q55 0 100.5 -19.5t77.5 -55.5t49.5 -86.5t17.5 -113.5zM301 264q0 63 -16 95.5t-40 32.5t-39.5 -32.5 t-15.5 -95.5t15.5 -95.5t39.5 -32.5t40 32.5t16 95.5zM314 600h-112l-99 167h158z" />
<glyph unicode="&#xf3;" horiz-adv-x="490" d="M490 264q0 -63 -17.5 -113.5t-49.5 -86.5t-77.5 -55.5t-100.5 -19.5q-56 0 -101 19.5t-77 55.5t-49.5 86.5t-17.5 113.5t17.5 113.5t49.5 86.5t77 55.5t101 19.5q55 0 100.5 -19.5t77.5 -55.5t49.5 -86.5t17.5 -113.5zM301 264q0 63 -16 95.5t-40 32.5t-39.5 -32.5 t-15.5 -95.5t15.5 -95.5t39.5 -32.5t40 32.5t16 95.5zM178 600l53 167h159l-100 -167h-112z" />
<glyph unicode="&#xf4;" horiz-adv-x="490" d="M490 264q0 -63 -17.5 -113.5t-49.5 -86.5t-77.5 -55.5t-100.5 -19.5q-56 0 -101 19.5t-77 55.5t-49.5 86.5t-17.5 113.5t17.5 113.5t49.5 86.5t77 55.5t101 19.5q55 0 100.5 -19.5t77.5 -55.5t49.5 -86.5t17.5 -113.5zM301 264q0 63 -16 95.5t-40 32.5t-39.5 -32.5 t-15.5 -95.5t15.5 -95.5t39.5 -32.5t40 32.5t16 95.5zM418 600h-143l-41 76l-43 -76h-117l87 156h177z" />
<glyph unicode="&#xf5;" horiz-adv-x="490" d="M490 264q0 -63 -17.5 -113.5t-49.5 -86.5t-77.5 -55.5t-100.5 -19.5q-56 0 -101 19.5t-77 55.5t-49.5 86.5t-17.5 113.5t17.5 113.5t49.5 86.5t77 55.5t101 19.5q55 0 100.5 -19.5t77.5 -55.5t49.5 -86.5t17.5 -113.5zM301 264q0 63 -16 95.5t-40 32.5t-39.5 -32.5 t-15.5 -95.5t15.5 -95.5t39.5 -32.5t40 32.5t16 95.5zM442 752v-16q0 -60 -32.5 -97t-86.5 -37q-34 0 -85 23q-32 15 -48 15q-27 0 -30 -40h-103q0 73 30 111t85 38q32 0 71 -16l34 -14q8 -3 16 -5.5t16 -2.5q29 0 32 41h101z" />
<glyph unicode="&#xf6;" horiz-adv-x="490" d="M490 264q0 -63 -17.5 -113.5t-49.5 -86.5t-77.5 -55.5t-100.5 -19.5q-56 0 -101 19.5t-77 55.5t-49.5 86.5t-17.5 113.5t17.5 113.5t49.5 86.5t77 55.5t101 19.5q55 0 100.5 -19.5t77.5 -55.5t49.5 -86.5t17.5 -113.5zM301 264q0 63 -16 95.5t-40 32.5t-39.5 -32.5 t-15.5 -95.5t15.5 -95.5t39.5 -32.5t40 32.5t16 95.5zM273 679q0 35 23.5 59t58.5 24t58.5 -24t23.5 -59t-23.5 -58.5t-58.5 -23.5t-58.5 23.5t-23.5 58.5zM56 679q0 35 23.5 59t58.5 24t58.5 -24t23.5 -59t-23.5 -58.5t-58.5 -23.5t-58.5 23.5t-23.5 58.5z" />
<glyph unicode="&#xf7;" horiz-adv-x="513" d="M0 326v117h513v-117h-513zM350 171q0 -18 -7 -34.5t-19.5 -29t-29.5 -20t-37 -7.5q-39 0 -66 27t-27 66q0 19 7 36t19.5 29.5t29 20t36.5 7.5q19 0 36.5 -7.5t30 -20.5t20 -30.5t7.5 -36.5zM350 594q0 -18 -7 -34.5t-20 -29t-30 -20t-36 -7.5q-20 0 -37 8t-29.5 21 t-19.5 30t-7 35q0 39 26.5 65.5t65.5 26.5q40 0 67 -26.5t27 -68.5z" />
<glyph unicode="&#xf8;" horiz-adv-x="491" d="M490 264q0 -63 -17.5 -113.5t-49.5 -86.5t-77.5 -55.5t-100.5 -19.5q-63 0 -114 25l-54 -77l-76 55l57 82q-28 35 -43 82.5t-15 107.5q0 63 17.5 113.5t49.5 86.5t77 55.5t101 19.5q33 0 62 -7t55 -20l52 75l77 -53l-58 -83q27 -35 42 -82.5t15 -104.5zM301 264 q0 63 -16 95.5t-40 32.5t-39.5 -32.5t-15.5 -95.5t15.5 -95.5t39.5 -32.5t40 32.5t16 95.5z" />
<glyph unicode="&#xf9;" horiz-adv-x="475" d="M196 528v-298q0 -39 8 -58.5t34 -19.5t33.5 19.5t7.5 58.5v298h196v-324q0 -50 -16.5 -90t-47.5 -68t-75 -42.5t-98 -14.5t-98 14.5t-75 42.5t-48 68t-17 90v324h196zM302 600h-112l-99 167h158z" />
<glyph unicode="&#xfa;" horiz-adv-x="475" d="M196 528v-298q0 -39 8 -58.5t34 -19.5t33.5 19.5t7.5 58.5v298h196v-324q0 -50 -16.5 -90t-47.5 -68t-75 -42.5t-98 -14.5t-98 14.5t-75 42.5t-48 68t-17 90v324h196zM177 600l53 167h159l-100 -167h-112z" />
<glyph unicode="&#xfb;" horiz-adv-x="475" d="M196 528v-298q0 -39 8 -58.5t34 -19.5t33.5 19.5t7.5 58.5v298h196v-324q0 -50 -16.5 -90t-47.5 -68t-75 -42.5t-98 -14.5t-98 14.5t-75 42.5t-48 68t-17 90v324h196zM410 600h-143l-41 76l-43 -76h-117l87 156h177z" />
<glyph unicode="&#xfc;" horiz-adv-x="475" d="M196 528v-298q0 -39 8 -58.5t34 -19.5t33.5 19.5t7.5 58.5v298h196v-324q0 -50 -16.5 -90t-47.5 -68t-75 -42.5t-98 -14.5t-98 14.5t-75 42.5t-48 68t-17 90v324h196zM264 679q0 35 23.5 59t58.5 24t58.5 -24t23.5 -59t-23.5 -58.5t-58.5 -23.5t-58.5 23.5t-23.5 58.5z M47 679q0 35 23.5 59t58.5 24t58.5 -24t23.5 -59t-23.5 -58.5t-58.5 -23.5t-58.5 23.5t-23.5 58.5z" />
<glyph unicode="&#xfd;" horiz-adv-x="516" d="M273 -221h-194l79 241l-158 508h195l37 -152q8 -31 13 -66.5t11 -78.5q5 43 10.5 75.5t14.5 69.5l38 152h197zM201 600l53 167h159l-100 -167h-112z" />
<glyph unicode="&#xfe;" horiz-adv-x="484" d="M0 825h196v-297q0 -14 -1 -33t-3 -42q25 48 52 67t69 19q38 0 69.5 -20t54 -56t35 -87t12.5 -113t-11.5 -112.5t-33 -86.5t-53 -55.5t-70.5 -19.5q-71 0 -124 83q2 -23 3 -45t1 -43v-219h-196v1060zM282 269q0 52 -12 80.5t-34 28.5q-46 0 -46 -111q0 -113 44 -113 q23 0 35.5 30t12.5 85z" />
<glyph unicode="&#xff;" horiz-adv-x="516" d="M273 -221h-194l79 241l-158 508h195l37 -152q8 -31 13 -66.5t11 -78.5q5 43 10.5 75.5t14.5 69.5l38 152h197zM284 679q0 35 23.5 59t58.5 24t58.5 -24t23.5 -59t-23.5 -58.5t-58.5 -23.5t-58.5 23.5t-23.5 58.5zM67 679q0 35 23.5 59t58.5 24t58.5 -24t23.5 -59 t-23.5 -58.5t-58.5 -23.5t-58.5 23.5t-23.5 58.5z" />
<glyph unicode="&#x100;" d="M571 0h-210l-17 96h-135l-17 -96h-210l174 754h242zM320 257l-29 203q-3 19 -6 45t-8 69q-5 -43 -8 -69t-6 -45l-30 -203h87zM100 810v108h354v-108h-354z" />
<glyph unicode="&#x102;" d="M571 0h-210l-17 96h-135l-17 -96h-210l174 754h242zM320 257l-29 203q-3 19 -6 45t-8 69q-5 -43 -8 -69t-6 -45l-30 -203h87zM190 946q11 -35 31 -55.5t56 -20.5t56 20.5t31 55.5h90q-8 -77 -53 -120.5t-124 -43.5t-124 43.5t-53 120.5h90z" />
<glyph unicode="&#x104;" d="M571 0h-49q-33 1 -56 -8t-38 -22t-21.5 -28.5t-6.5 -28.5q0 -20 14.5 -36.5t37.5 -16.5q15 0 33 5.5t35 10.5l-34 -107q-15 -6 -26 -9.5t-31 -3.5q-29 0 -55.5 8t-46.5 24q-41 32 -41 82q0 67 75 130l-17 96h-135l-17 -96h-210l174 754h242zM320 257l-29 203 q0 2 -4.5 31.5t-9.5 82.5q-5 -43 -7.5 -69t-5.5 -45l-31 -203h87z" />
<glyph unicode="&#x106;" horiz-adv-x="470" d="M446 14q-68 -27 -122 -27q-68 0 -124.5 26.5t-97.5 77t-64 122.5t-23 164q0 87 23.5 159t67 123.5t105 80t137.5 28.5q26 0 50.5 -5t50.5 -14v-215q-47 45 -93 45q-66 0 -99.5 -54t-33.5 -148q0 -91 33 -142.5t96 -51.5q54 0 106 49zM361 782h-117l57 164h164z" />
<glyph unicode="&#x108;" horiz-adv-x="470" d="M446 14q-68 -27 -122 -27q-68 0 -124.5 26.5t-97.5 77t-64 122.5t-23 164q0 87 23.5 159t67 123.5t105 80t137.5 28.5q26 0 50.5 -5t50.5 -14v-215q-47 45 -93 45q-66 0 -99.5 -54t-33.5 -148q0 -91 33 -142.5t96 -51.5q54 0 106 49zM498 782h-128l-54 86l-54 -86h-128 l100 164h164z" />
<glyph unicode="&#x10a;" horiz-adv-x="470" d="M446 14q-68 -27 -122 -27q-68 0 -124.5 26.5t-97.5 77t-64 122.5t-23 164q0 87 23.5 159t67 123.5t105 80t137.5 28.5q26 0 50.5 -5t50.5 -14v-215q-47 45 -93 45q-66 0 -99.5 -54t-33.5 -148q0 -91 33 -142.5t96 -51.5q54 0 106 49zM426 875q0 -20 -8 -37.5t-21 -31 t-31 -21t-37 -7.5q-21 0 -39.5 8t-31.5 21.5t-20.5 31.5t-7.5 38q0 42 28 69.5t70 27.5q19 0 37 -7.5t31.5 -21t21.5 -31.5t8 -39z" />
<glyph unicode="&#x10c;" horiz-adv-x="470" d="M446 14q-68 -27 -122 -27q-68 0 -124.5 26.5t-97.5 77t-64 122.5t-23 164q0 87 23.5 159t67 123.5t105 80t137.5 28.5q26 0 50.5 -5t50.5 -14v-215q-47 45 -93 45q-66 0 -99.5 -54t-33.5 -148q0 -91 33 -142.5t96 -51.5q54 0 106 49zM406 782h-164l-100 164h128l54 -86 l54 86h128z" />
<glyph unicode="&#x10e;" horiz-adv-x="568" d="M32 754h176q87 0 152 -28.5t107.5 -79t64 -120t21.5 -150.5q0 -85 -19.5 -154.5t-60.5 -118.5t-103.5 -76t-147.5 -27h-190v754zM235 182q110 6 110 189q0 91 -28.5 143t-74.5 52h-7v-384zM297 782h-164l-100 164h128l54 -86l54 86h128z" />
<glyph unicode="&#x110;" horiz-adv-x="586" d="M50 328h-46v117h46v309h176q87 0 152 -28.5t107.5 -79t64 -120t21.5 -150.5q0 -85 -19.5 -154.5t-60.5 -118.5t-103.5 -76t-147.5 -27h-190v328zM253 445h60v-117h-60v-146q110 6 110 189q0 91 -28.5 143t-74.5 52h-7v-121z" />
<glyph unicode="&#x112;" horiz-adv-x="419" d="M24 0v754h378v-177h-175v-110h157v-171h-157v-115h175v-181h-378zM34 810v108h354v-108h-354z" />
<glyph unicode="&#x116;" horiz-adv-x="419" d="M24 0v754h378v-177h-175v-110h157v-171h-157v-115h175v-181h-378zM302 875q0 -20 -8 -37.5t-21 -31t-31 -21t-37 -7.5q-21 0 -39.5 8t-31.5 21.5t-20.5 31.5t-7.5 38q0 42 28 69.5t70 27.5q19 0 37 -7.5t31.5 -21t21.5 -31.5t8 -39z" />
<glyph unicode="&#x118;" horiz-adv-x="419" d="M24 0v754h378v-177h-175v-110h157v-171h-157v-115h175v-181q-58 -1 -94 -27t-36 -64q0 -23 14 -36t41 -13q19 0 51 9l-18 -101q-15 -6 -27.5 -9t-30.5 -3q-30 0 -56.5 8.5t-46 23.5t-31 36t-11.5 45q0 35 22 69t60 62h-215z" />
<glyph unicode="&#x11a;" horiz-adv-x="419" d="M24 0v754h378v-177h-175v-110h157v-171h-157v-115h175v-181h-378zM294 782h-164l-100 164h128l54 -86l54 86h128z" />
<glyph unicode="&#x11c;" horiz-adv-x="595" d="M298 436h282v-31q0 -114 -18 -194t-53 -129.5t-86 -72t-117 -22.5q-69 0 -123 27t-91.5 77.5t-57 122.5t-19.5 163t20.5 163.5t58 123t91.5 77.5t121 27q177 0 258 -187l-197 -72q-5 35 -20 56t-47 21q-42 0 -59.5 -53.5t-17.5 -155.5t17.5 -155.5t59.5 -53.5 q32 0 51.5 29t19.5 80h-73v159zM490 782h-128l-54 86l-54 -86h-128l100 164h164z" />
<glyph unicode="&#x11e;" horiz-adv-x="595" d="M298 436h282v-31q0 -114 -18 -194t-53 -129.5t-86 -72t-117 -22.5q-69 0 -123 27t-91.5 77.5t-57 122.5t-19.5 163t20.5 163.5t58 123t91.5 77.5t121 27q177 0 258 -187l-197 -72q-5 35 -20 56t-47 21q-42 0 -59.5 -53.5t-17.5 -155.5t17.5 -155.5t59.5 -53.5 q32 0 51.5 29t19.5 80h-73v159zM214 946q11 -35 31 -55.5t56 -20.5t56 20.5t31 55.5h90q-8 -77 -53 -120.5t-124 -43.5t-124 43.5t-53 120.5h90z" />
<glyph unicode="&#x11f;" horiz-adv-x="487" d="M487 -15q0 -109 -62.5 -169.5t-180.5 -60.5q-109 0 -165.5 45.5t-70.5 145.5h198q3 -45 43 -45q44 0 44 77v89q-25 -38 -53.5 -56t-68.5 -18q-38 0 -69.5 19.5t-54 55.5t-35 86t-12.5 110t11.5 110.5t33.5 87t53.5 57t71.5 20.5q35 0 63 -19t60 -67q-1 10 -2 22.5 t-1 22.5v30h197v-543zM203 267q0 -55 12 -84t35 -29t35 29t12 84t-12 84t-35 29t-35 -29t-12 -84zM154 768q14 -35 36 -48t66 -13q40 0 61 13t34 48h79q-17 -168 -176 -168q-78 0 -124.5 45t-54.5 123h79z" />
<glyph unicode="&#x120;" horiz-adv-x="595" d="M298 436h282v-31q0 -114 -18 -194t-53 -129.5t-86 -72t-117 -22.5q-69 0 -123 27t-91.5 77.5t-57 122.5t-19.5 163t20.5 163.5t58 123t91.5 77.5t121 27q177 0 258 -187l-197 -72q-5 35 -20 56t-47 21q-42 0 -59.5 -53.5t-17.5 -155.5t17.5 -155.5t59.5 -53.5 q32 0 51.5 29t19.5 80h-73v159zM411 875q0 -20 -8 -37.5t-21 -31t-31 -21t-37 -7.5q-21 0 -39.5 8t-31.5 21.5t-20.5 31.5t-7.5 38q0 42 28 69.5t70 27.5q19 0 37 -7.5t31.5 -21t21.5 -31.5t8 -39z" />
<glyph unicode="&#x122;" horiz-adv-x="595" d="M298 436h282v-31q0 -114 -18 -194t-53 -129.5t-86 -72t-117 -22.5q-69 0 -123 27t-91.5 77.5t-57 122.5t-19.5 163t20.5 163.5t58 123t91.5 77.5t121 27q177 0 258 -187l-197 -72q-5 35 -20 56t-47 21q-42 0 -59.5 -53.5t-17.5 -155.5t17.5 -155.5t59.5 -53.5 q32 0 51.5 29t19.5 80h-73v159zM311 -231h-78l58 103h-46v108h135v-102z" />
<glyph unicode="&#x124;" horiz-adv-x="552" d="M528 0h-203v303h-98v-303h-203v754h203v-267h98v267h203v-754zM467 782h-128l-54 86l-54 -86h-128l100 164h164z" />
<glyph unicode="&#x126;" horiz-adv-x="552" d="M227 487h98v78h-98v-78zM325 0v303h-98v-303h-203v754h203v-79h98v79h203v-754h-203z" />
<glyph unicode="&#x128;" horiz-adv-x="251" d="M227 0h-203v754h203v-754zM299 935v-16q0 -32 -8.5 -57t-22.5 -42.5t-32 -26.5t-37 -9q-16 0 -31 6t-29.5 13t-28 13t-27.5 6q-12 0 -23.5 -11t-11.5 -29h-97q0 38 8.5 66t22.5 46.5t32 27.5t37 9t35 -6t29.5 -12.5t26.5 -12.5t27 -6q12 0 23.5 11.5t11.5 29.5h95z" />
<glyph unicode="&#x12a;" horiz-adv-x="251" d="M227 0h-203v754h203v-754zM-21 810v109h292v-109h-292z" />
<glyph unicode="&#x12e;" horiz-adv-x="251" d="M178 0q-25 0 -46.5 -8t-37.5 -21t-25.5 -29.5t-9.5 -33.5q0 -26 17.5 -37t39.5 -11q8 0 24.5 1.5t43.5 14.5l-27 -108q-30 -12 -64 -12q-32 0 -58.5 8.5t-46 24t-30 37t-10.5 46.5q0 65 76 128v754h203v-754h-49z" />
<glyph unicode="&#x130;" horiz-adv-x="251" d="M227 0h-203v754h203v-754zM224 875q0 -20 -8 -37.5t-21 -31t-31 -21t-37 -7.5q-21 0 -39.5 8t-31.5 21.5t-20.5 31.5t-7.5 38q0 42 28 69.5t70 27.5q19 0 37 -7.5t31.5 -21t21.5 -31.5t8 -39z" />
<glyph unicode="&#x134;" horiz-adv-x="387" d="M18 222q34 -45 82 -45q62 0 62 94v483h204v-524q0 -115 -50.5 -179t-164.5 -64q-60 0 -133 24v211zM416 782h-128l-54 86l-54 -86h-128l100 164h164z" />
<glyph unicode="&#x136;" horiz-adv-x="559" d="M577 0h-215l-140 348q2 -20 3.5 -39t1.5 -39v-270h-203v754h203v-256q0 -17 -1.5 -33.5t-3.5 -33.5l125 323h210l-163 -364zM290 -231h-78l58 103h-46v108h135v-102z" />
<glyph unicode="&#x138;" horiz-adv-x="510" d="M285 0l-71 195q-3 8 -7 22.5t-11 37.5v-255h-196v528h196v-248q7 21 14.5 41t15.5 41l68 166h212l-134 -252l138 -276h-225z" />
<glyph unicode="&#x139;" horiz-adv-x="386" d="M380 0h-356v754h203v-573h153v-181zM172 782h-117l57 164h164z" />
<glyph unicode="&#x13b;" horiz-adv-x="386" d="M380 0h-356v754h203v-573h153v-181zM190 -231h-78l58 103h-46v108h135v-102z" />
<glyph unicode="&#x13d;" horiz-adv-x="386" d="M380 0h-356v754h203v-573h153v-181zM317 543h-78l58 103h-46v108h135v-102z" />
<glyph unicode="&#x13f;" horiz-adv-x="467" d="M380 0h-356v754h203v-573h153v-181zM457 412q0 -20 -8 -37.5t-21 -31t-31 -21t-37 -7.5q-21 0 -39.5 8t-31.5 21.5t-20.5 31.5t-7.5 38q0 42 28 69.5t70 27.5q19 0 37 -7.5t31.5 -21t21.5 -31.5t8 -39z" />
<glyph unicode="&#x141;" horiz-adv-x="441" d="M79 246l-61 -49v137l61 47v373h203v-264l100 82v-140l-100 -79v-172h153v-181h-356v246z" />
<glyph unicode="&#x143;" horiz-adv-x="579" d="M24 0v754h194l106 -277q8 -21 15.5 -45t15 -47.5t13.5 -45.5t11 -40q-6 79 -12.5 148.5t-6.5 114.5v192h195v-754h-195l-102 277q-16 43 -29 82.5t-23 75.5q6 -79 9 -138.5t3 -104.5v-192h-194zM325 782h-117l57 164h164z" />
<glyph unicode="&#x145;" horiz-adv-x="579" d="M24 0v754h194l106 -277q8 -21 15.5 -45t15 -47.5t13.5 -45.5t11 -40q-6 79 -12.5 148.5t-6.5 114.5v192h195v-754h-195l-102 277q-16 43 -29 82.5t-23 75.5q6 -79 9 -138.5t3 -104.5v-192h-194zM285 -231h-78l58 103h-46v108h135v-102z" />
<glyph unicode="&#x147;" horiz-adv-x="579" d="M24 0v754h194l106 -277q8 -21 15.5 -45t15 -47.5t13.5 -45.5t11 -40q-6 79 -12.5 148.5t-6.5 114.5v192h195v-754h-195l-102 277q-16 43 -29 82.5t-23 75.5q6 -79 9 -138.5t3 -104.5v-192h-194zM375 782h-164l-100 164h128l54 -86l54 86h128z" />
<glyph unicode="&#x14a;" horiz-adv-x="579" d="M24 0v754h194l106 -277q8 -21 15.5 -45t15 -47.5t13.5 -45.5t11 -40q-6 79 -12.5 148.5t-6.5 114.5v192h195v-806q0 -83 -37.5 -131t-118.5 -46l-70 189q14 0 25 13t4 32l-100 272q-16 43 -29 82.5t-23 75.5q6 -79 9 -138.5t3 -104.5v-192h-194z" />
<glyph unicode="&#x14c;" horiz-adv-x="604" d="M589 377q0 -87 -20.5 -159t-58.5 -123.5t-91 -79.5t-117 -28q-65 0 -117.5 28t-90.5 79.5t-58.5 123.5t-20.5 159t20.5 159t58.5 123.5t90.5 80t117.5 28.5q64 0 117 -28.5t91 -80t58.5 -123.5t20.5 -159zM378 377q0 97 -20 149t-56 52t-56 -52t-20 -149t20 -148.5 t56 -51.5t56 51.5t20 148.5zM125 810v108h354v-108h-354z" />
<glyph unicode="&#x150;" horiz-adv-x="604" d="M589 377q0 -87 -20.5 -159t-58.5 -123.5t-91 -79.5t-117 -28q-65 0 -117.5 28t-90.5 79.5t-58.5 123.5t-20.5 159t20.5 159t58.5 123.5t90.5 80t117.5 28.5q64 0 117 -28.5t91 -80t58.5 -123.5t20.5 -159zM378 377q0 97 -20 149t-56 52t-56 -52t-20 -149t20 -148.5 t56 -51.5t56 51.5t20 148.5zM164 782l53 164h139l-91 -164h-101zM335 782l54 164h139l-92 -164h-101z" />
<glyph unicode="&#x152;" horiz-adv-x="768" d="M380 0q-18 -6 -37 -9.5t-41 -3.5q-65 0 -117.5 28t-90.5 79.5t-58.5 123.5t-20.5 159t20.5 159t58.5 123.5t90.5 80t117.5 28.5q42 0 81 -14h368v-177h-175v-110h157v-171h-157v-115h175v-181h-371zM378 377q0 97 -20 149t-56 52t-56 -52t-20 -149t20 -148.5t56 -51.5 t56 51.5t20 148.5z" />
<glyph unicode="&#x153;" horiz-adv-x="774" d="M764 170q-6 -41 -27 -74t-52.5 -57t-71.5 -37t-83 -13q-83 0 -142 43q-59 -43 -143 -43q-56 0 -101 19.5t-77 55.5t-49.5 86.5t-17.5 113.5t17.5 113.5t49.5 86.5t77 55.5t101 19.5q42 0 78 -11.5t65 -32.5q29 21 64.5 32.5t77.5 11.5q54 0 99 -19t77.5 -54.5t50 -86.5 t17.5 -115q0 -8 -0.5 -20.5t-0.5 -20.5h-296q2 -42 17 -64t36 -22q34 0 45 39zM301 264q0 63 -16 95.5t-40 32.5t-39.5 -32.5t-15.5 -95.5t15.5 -95.5t39.5 -32.5t40 32.5t16 95.5zM583 322q-4 29 -16.5 49t-36.5 20t-36.5 -20t-16.5 -49h106z" />
<glyph unicode="&#x154;" horiz-adv-x="542" d="M560 0h-220l-113 309v-309h-203v754h197q82 0 139.5 -18.5t93.5 -51.5t52.5 -79.5t16.5 -102.5q0 -137 -115 -189zM227 408h14q40 0 61 23.5t21 66.5t-21 66t-61 23h-14v-179zM261 782h-117l57 164h164z" />
<glyph unicode="&#x156;" horiz-adv-x="542" d="M560 0h-220l-113 309v-309h-203v754h197q82 0 139.5 -18.5t93.5 -51.5t52.5 -79.5t16.5 -102.5q0 -137 -115 -189zM227 408h14q40 0 61 23.5t21 66.5t-21 66t-61 23h-14v-179zM267 -231h-78l58 103h-46v108h135v-102z" />
<glyph unicode="&#x158;" horiz-adv-x="542" d="M560 0h-220l-113 309v-309h-203v754h197q82 0 139.5 -18.5t93.5 -51.5t52.5 -79.5t16.5 -102.5q0 -137 -115 -189zM227 408h14q40 0 61 23.5t21 66.5t-21 66t-61 23h-14v-179zM301 782h-164l-100 164h128l54 -86l54 86h128z" />
<glyph unicode="&#x15a;" horiz-adv-x="420" d="M18 255q61 -82 130 -82q26 0 42.5 14t16.5 35q0 30 -36 59l-33 26q-66 51 -94.5 100.5t-28.5 112.5q0 52 17.5 97t48.5 78.5t73 53t90 19.5q72 0 146 -39v-230q-25 38 -56.5 60.5t-62.5 22.5q-23 0 -38.5 -13.5t-15.5 -32.5q0 -30 41 -60l33 -24q64 -47 92 -95.5 t28 -113.5q0 -56 -18 -102.5t-49.5 -81t-76 -53.5t-96.5 -19q-71 0 -153 32v236zM272 782h-117l57 164h164z" />
<glyph unicode="&#x15c;" horiz-adv-x="420" d="M18 255q61 -82 130 -82q26 0 42.5 14t16.5 35q0 30 -36 59l-33 26q-66 51 -94.5 100.5t-28.5 112.5q0 52 17.5 97t48.5 78.5t73 53t90 19.5q72 0 146 -39v-230q-25 38 -56.5 60.5t-62.5 22.5q-23 0 -38.5 -13.5t-15.5 -32.5q0 -30 41 -60l33 -24q64 -47 92 -95.5 t28 -113.5q0 -56 -18 -102.5t-49.5 -81t-76 -53.5t-96.5 -19q-71 0 -153 32v236zM408 782h-128l-54 86l-54 -86h-128l100 164h164z" />
<glyph unicode="&#x15e;" horiz-adv-x="420" d="M18 255q61 -82 130 -82q26 0 42.5 14t16.5 35q0 30 -36 59l-33 26q-66 51 -94.5 100.5t-28.5 112.5q0 52 17.5 97t48.5 78.5t73 53t90 19.5q72 0 146 -39v-230q-25 38 -56.5 60.5t-62.5 22.5q-23 0 -38.5 -13.5t-15.5 -32.5q0 -30 41 -60l33 -24q64 -47 92 -95.5 t28 -113.5q0 -56 -18 -102.5t-49.5 -81t-76 -53.5t-96.5 -19q-71 0 -153 32v236zM121 -132q10 -17 28.5 -25.5t32.5 -8.5q18 0 31.5 11.5t13.5 28.5q0 18 -15.5 29.5t-35.5 11.5q-12 0 -24 -4t-22 -9l14 52q6 3 24.5 7.5t38.5 4.5q47 0 79.5 -28t32.5 -73q0 -23 -10 -43 t-27 -34.5t-40 -23t-49 -8.5q-22 0 -48 6t-47 19z" />
<glyph unicode="&#x160;" horiz-adv-x="420" d="M18 255q61 -82 130 -82q26 0 42.5 14t16.5 35q0 30 -36 59l-33 26q-66 51 -94.5 100.5t-28.5 112.5q0 52 17.5 97t48.5 78.5t73 53t90 19.5q72 0 146 -39v-230q-25 38 -56.5 60.5t-62.5 22.5q-23 0 -38.5 -13.5t-15.5 -32.5q0 -30 41 -60l33 -24q64 -47 92 -95.5 t28 -113.5q0 -56 -18 -102.5t-49.5 -81t-76 -53.5t-96.5 -19q-71 0 -153 32v236zM312 782h-164l-100 164h128l54 -86l54 86h128z" />
<glyph unicode="&#x161;" horiz-adv-x="398" d="M68 189q51 -54 100 -54q38 0 38 27q0 24 -51 42q-139 49 -139 155q0 39 16.5 72t46 57t69 37.5t85.5 13.5q78 0 157 -43l-66 -140q-20 21 -42.5 32t-38.5 11q-12 0 -23.5 -5t-11.5 -18q0 -17 15.5 -27t44.5 -23q34 -15 59 -29.5t40.5 -32t23 -39t7.5 -51.5q0 -41 -16 -75 t-44 -58.5t-67 -38t-84 -13.5q-24 0 -44 2t-41 8t-45.5 17t-56.5 28zM46 756h143l40 -76l44 76h117l-87 -156h-177z" />
<glyph unicode="&#x162;" horiz-adv-x="446" d="M325 0h-204v573h-115v181h434v-181h-115v-573zM212 -229h-78l58 103h-46v108h135v-102z" />
<glyph unicode="&#x164;" horiz-adv-x="446" d="M325 0h-204v573h-115v181h434v-181h-115v-573zM315 782h-164l-100 164h128l54 -86l54 86h128z" />
<glyph unicode="&#x166;" horiz-adv-x="446" d="M325 528h61v-158h-61v-370h-204v370h-61v158h61v45h-115v181h434v-181h-115v-45z" />
<glyph unicode="&#x168;" horiz-adv-x="554" d="M533 754v-504q0 -65 -18.5 -114t-52 -82t-80.5 -50t-104 -17t-104.5 17t-81 50t-52.5 82t-19 114v504h204v-486q0 -51 12 -71t41 -20t40 20t11 71v486h204zM470 935v-16q0 -60 -32.5 -97.5t-86.5 -37.5q-11 0 -29 6t-38 13t-38 13t-27 6q-29 0 -30 -40h-103 q0 75 29.5 112t84.5 37q15 0 33 -3.5t38 -11.5l34 -14q8 -3 16 -5.5t16 -2.5q29 0 32 41h101z" />
<glyph unicode="&#x16a;" horiz-adv-x="554" d="M533 754v-504q0 -65 -18.5 -114t-52 -82t-80.5 -50t-104 -17t-104.5 17t-81 50t-52.5 82t-19 114v504h204v-486q0 -51 12 -71t41 -20t40 20t11 71v486h204zM101 810v108h354v-108h-354z" />
<glyph unicode="&#x16c;" horiz-adv-x="554" d="M533 754v-504q0 -65 -18.5 -114t-52 -82t-80.5 -50t-104 -17t-104.5 17t-81 50t-52.5 82t-19 114v504h204v-486q0 -51 12 -71t41 -20t40 20t11 71v486h204zM191 946q11 -35 31 -55.5t56 -20.5t56 20.5t31 55.5h90q-8 -77 -53 -120.5t-124 -43.5t-124 43.5t-53 120.5h90z " />
<glyph unicode="&#x16e;" horiz-adv-x="554" d="M533 754v-504q0 -65 -18.5 -114t-52 -82t-80.5 -50t-104 -17t-104.5 17t-81 50t-52.5 82t-19 114v504h204v-486q0 -51 12 -71t41 -20t40 20t11 71v486h204zM376 863q0 -20 -8 -37.5t-21 -31t-31 -21t-37 -7.5q-21 0 -39.5 8t-31.5 21.5t-20.5 31.5t-7.5 38q0 42 28 69.5 t70 27.5q19 0 37 -7.5t31.5 -21t21.5 -31.5t8 -39zM320 863q0 18 -12 30.5t-30 12.5q-17 0 -29 -12t-12 -30q0 -17 12.5 -29.5t29.5 -12.5t29 12.5t12 28.5z" />
<glyph unicode="&#x170;" horiz-adv-x="554" d="M533 754v-504q0 -65 -18.5 -114t-52 -82t-80.5 -50t-104 -17t-104.5 17t-81 50t-52.5 82t-19 114v504h204v-486q0 -51 12 -71t41 -20t40 20t11 71v486h204zM142 782l53 164h139l-91 -164h-101zM313 782l54 164h139l-92 -164h-101z" />
<glyph unicode="&#x172;" horiz-adv-x="554" d="M533 754v-504q0 -40 -9.5 -80t-29 -74t-49.5 -59.5t-72 -36.5q-48 -45 -48 -89q0 -51 58 -51q16 0 48 9l-11 -101q-30 -12 -62 -12t-59 8.5t-46.5 23.5t-30.5 36t-11 46q0 62 61 117q-57 2 -103.5 20t-79 51t-50.5 81t-18 111v504h203v-486q0 -51 12 -71t41 -20 q30 0 41 20t11 71v486h204z" />
<glyph unicode="&#x174;" horiz-adv-x="816" d="M666 0h-190l-38 264l-6 38t-6 43t-7.5 54.5t-10.5 72.5q-6 -42 -10.5 -72.5t-7.5 -54.5t-6 -43l-6 -38l-38 -264h-190l-168 754h199l37 -234q8 -49 14 -109t12 -138q18 174 42 300l34 181h176l34 -181q24 -128 42 -300q6 78 12 138t14 109l37 234h199zM590 782h-128 l-54 86l-54 -86h-128l100 164h164z" />
<glyph unicode="&#x176;" horiz-adv-x="530" d="M373 0h-204v319l-187 435h212l37 -112q11 -32 19.5 -62.5t15.5 -58.5q7 28 15 58.5t19 62.5l37 112h211l-175 -435v-319zM448 782h-128l-54 86l-54 -86h-128l100 164h164z" />
<glyph unicode="&#x178;" horiz-adv-x="530" d="M373 0h-204v319l-187 435h212l37 -112q11 -32 19.5 -62.5t15.5 -58.5q7 28 15 58.5t19 62.5l37 112h211l-175 -435v-319zM441 863q0 -33 -24 -57t-57 -24q-35 0 -59 24t-24 58t24 58t58 24t58 -24.5t24 -58.5zM252 864q0 -17 -7 -32t-18 -26t-26 -17.5t-31 -6.5 q-33 0 -57 24.5t-24 57.5q0 34 24 58t57 24q34 0 58 -24t24 -58z" />
<glyph unicode="&#x179;" horiz-adv-x="528" d="M501 0h-519v20l176 400q27 62 48 98t37 59h-216v177h499v-20l-185 -412q-17 -39 -36 -76.5t-36 -73.5q18 7 36 8t38 1h158v-181zM306 782h-117l57 164h164z" />
<glyph unicode="&#x17b;" horiz-adv-x="528" d="M501 0h-519v20l176 400q27 62 48 98t37 59h-216v177h499v-20l-185 -412q-17 -39 -36 -76.5t-36 -73.5q18 7 36 8t38 1h158v-181zM380 875q0 -20 -8 -37.5t-21 -31t-31 -21t-37 -7.5q-21 0 -39.5 8t-31.5 21.5t-20.5 31.5t-7.5 38q0 42 28 69.5t70 27.5q19 0 37 -7.5 t31.5 -21t21.5 -31.5t8 -39z" />
<glyph unicode="&#x17d;" horiz-adv-x="528" d="M501 0h-519v20l176 400q27 62 48 98t37 59h-216v177h499v-20l-185 -412q-17 -39 -36 -76.5t-36 -73.5q18 7 36 8t38 1h158v-181zM370 782h-164l-100 164h128l54 -86l54 86h128z" />
<glyph unicode="&#x17e;" horiz-adv-x="454" d="M425 0h-425l128 274l22 44t28 52h-149v158h425l-124 -269q-11 -24 -24 -48.5t-28 -50.5h147v-160zM68 756h143l40 -76l44 76h117l-87 -156h-177z" />
<glyph unicode="&#x192;" horiz-adv-x="482" d="M401 370h-60l-55 -324q-17 -102 -65 -149t-136 -47q-34 0 -85 15l24 161q15 -2 24 -2.5t12 -0.5q26 0 37.5 9t15.5 32l51 306h-62l25 158h63l19 112q9 51 23 86.5t35.5 58.5t52 33.5t73.5 10.5q15 0 32.5 -1.5t35.5 -6.5l21 -5l-21 -156q-6 2 -15 3t-11 1q-25 0 -35.5 -7 t-15.5 -32l-17 -97h61z" />
<glyph unicode="&#x218;" horiz-adv-x="420" d="M18 255q61 -82 130 -82q26 0 42.5 14t16.5 35q0 30 -36 59l-33 26q-66 51 -94.5 100.5t-28.5 112.5q0 52 17.5 97t48.5 78.5t73 53t90 19.5q72 0 146 -39v-230q-25 38 -56.5 60.5t-62.5 22.5q-23 0 -38.5 -13.5t-15.5 -32.5q0 -30 41 -60l33 -24q64 -47 92 -95.5 t28 -113.5q0 -56 -18 -102.5t-49.5 -81t-76 -53.5t-96.5 -19q-71 0 -153 32v236zM196 -231h-78l58 103h-46v108h135v-102z" />
<glyph unicode="&#x21a;" horiz-adv-x="446" d="M325 0h-204v573h-115v181h434v-181h-115v-573zM225 -231h-78l58 103h-46v108h135v-102z" />
<glyph unicode="&#x2c6;" horiz-adv-x="344" d="M344 600h-143l-41 76l-43 -76h-117l87 156h177z" />
<glyph unicode="&#x2c7;" horiz-adv-x="344" d="M0 756h143l40 -76l44 76h117l-87 -156h-177z" />
<glyph unicode="&#x2d8;" horiz-adv-x="355" d="M79 768q14 -35 36 -48t66 -13q40 0 61 13t34 48h79q-17 -168 -176 -168q-78 0 -124.5 45t-54.5 123h79z" />
<glyph unicode="&#x2d9;" horiz-adv-x="228" d="M0 691q0 24 9 44.5t24.5 36.5t36 25t44.5 9t44.5 -9t36 -25t24.5 -36.5t9 -44.5t-9 -44.5t-24.5 -36t-36 -24.5t-44.5 -9t-44.5 9t-36 24.5t-24.5 36t-9 44.5z" />
<glyph unicode="&#x2da;" horiz-adv-x="217" d="M217 699q0 -22 -8.5 -41.5t-23.5 -34t-34.5 -23t-41.5 -8.5q-23 0 -42.5 8.5t-34.5 23t-23.5 34t-8.5 42.5q0 22 8.5 42t23 35t34 23.5t42.5 8.5t43 -9t34.5 -24t23 -35t8.5 -42zM153 700q0 20 -13 33.5t-32 13.5q-20 0 -33 -13.5t-13 -33.5q0 -19 13 -32.5t33 -13.5 q19 0 32 13.5t13 32.5z" />
<glyph unicode="&#x2db;" horiz-adv-x="221" d="M163 0q-48 -44 -48 -89q0 -51 57 -51q17 0 49 9l-12 -101q-30 -12 -62 -12t-59 8.5t-46.5 23.5t-30.5 36t-11 46q0 66 76 130h87z" />
<glyph unicode="&#x2dc;" horiz-adv-x="385" d="M385 752v-16q0 -60 -32.5 -97t-86.5 -37q-34 0 -85 23q-32 15 -48 15q-27 0 -30 -40h-103q0 73 30 111t85 38q32 0 71 -16l34 -14q8 -3 16 -5.5t16 -2.5q29 0 32 41h101z" />
<glyph unicode="&#x2dd;" horiz-adv-x="381" d="M0 600l53 167h139l-91 -167h-101zM188 600l53 167h140l-92 -167h-101z" />
<glyph unicode="&#x384;" horiz-adv-x="212" d="M0 587l53 167h159l-100 -167h-112z" />
<glyph unicode="&#x386;" d="M571 0h-210l-17 96h-135l-17 -96h-210l174 754h242zM320 257l-29 203q-3 19 -6 45t-8 69q-5 -43 -8 -69t-6 -45l-30 -203h87z" />
<glyph unicode="&#x388;" horiz-adv-x="419" d="M24 0v754h378v-177h-175v-110h157v-171h-157v-115h175v-181h-378z" />
<glyph unicode="&#x389;" horiz-adv-x="552" d="M528 0h-203v303h-98v-303h-203v754h203v-267h98v267h203v-754z" />
<glyph unicode="&#x38a;" horiz-adv-x="251" d="M227 0h-203v754h203v-754z" />
<glyph unicode="&#x38c;" horiz-adv-x="604" d="M589 377q0 -87 -20.5 -159t-58.5 -123.5t-91 -79.5t-117 -28q-65 0 -117.5 28t-90.5 79.5t-58.5 123.5t-20.5 159t20.5 159t58.5 123.5t90.5 80t117.5 28.5q64 0 117 -28.5t91 -80t58.5 -123.5t20.5 -159zM378 377q0 97 -20 149t-56 52t-56 -52t-20 -149t20 -148.5 t56 -51.5t56 51.5t20 148.5z" />
<glyph unicode="&#x38e;" horiz-adv-x="530" d="M373 0h-204v319l-187 435h212l37 -112q11 -32 19.5 -62.5t15.5 -58.5q7 28 15 58.5t19 62.5l37 112h211l-175 -435v-319z" />
<glyph unicode="&#x38f;" horiz-adv-x="672" d="M33 0v181h107q-24 15 -46 36t-39 50t-27 66t-10 82q0 85 27.5 151t72.5 111t102 68t116 23t116 -23t102 -68t72.5 -111t27.5 -151q0 -45 -10 -81.5t-26.5 -65.5t-39 -50.5t-47.5 -36.5h109v-181h-275v203q21 7 36 27.5t24.5 46t14 52.5t4.5 48q0 43 -6.5 80t-20 64 t-34 42t-47.5 15t-47.5 -15t-34 -42t-20 -64t-6.5 -80q0 -21 4.5 -48t14 -52.5t24.5 -45.5t36 -28v-203h-274z" />
<glyph unicode="&#x391;" d="M571 0h-210l-17 96h-135l-17 -96h-210l174 754h242zM320 257l-29 203q-3 19 -6 45t-8 69q-5 -43 -8 -69t-6 -45l-30 -203h87z" />
<glyph unicode="&#x392;" horiz-adv-x="545" d="M24 754h237q67 0 116.5 -16t81.5 -44.5t47.5 -68t15.5 -85.5q0 -141 -140 -153q81 -12 117.5 -52.5t36.5 -118.5q0 -48 -16.5 -88t-46.5 -68.5t-72 -44t-92 -15.5h-285v754zM227 164q6 -1 10.5 -1h7.5q38 0 60.5 19.5t22.5 53.5t-22.5 53t-62.5 19h-16v-144zM227 461h14 q37 0 58 17t21 48q0 65 -72 65h-8t-13 -1v-129z" />
<glyph unicode="&#x393;" horiz-adv-x="410" d="M24 0v754h380v-177h-177v-577h-203z" />
<glyph unicode="&#x394;" d="M571 0h-589l174 754h242zM333 181l-41 279q-3 19 -6.5 45t-8.5 69q-5 -43 -8 -69t-6 -45l-43 -279h113z" />
<glyph unicode="&#x395;" horiz-adv-x="419" d="M24 0v754h378v-177h-175v-110h157v-171h-157v-115h175v-181h-378z" />
<glyph unicode="&#x396;" horiz-adv-x="528" d="M501 0h-519v20l176 400q27 62 48 98t37 59h-216v177h499v-20l-185 -412q-17 -39 -36 -76.5t-36 -73.5q18 7 36 8t38 1h158v-181z" />
<glyph unicode="&#x397;" horiz-adv-x="552" d="M528 0h-203v303h-98v-303h-203v754h203v-267h98v267h203v-754z" />
<glyph unicode="&#x398;" horiz-adv-x="604" d="M238 292l21 171h107l-21 -171h-107zM589 377q0 -87 -20.5 -159t-58.5 -123.5t-91 -79.5t-117 -28q-65 0 -117.5 28t-90.5 79.5t-58.5 123.5t-20.5 159t20.5 159t58.5 123.5t90.5 80t117.5 28.5q64 0 117 -28.5t91 -80t58.5 -123.5t20.5 -159zM382 377q0 97 -21 149 t-59 52t-59 -52t-21 -149t21 -148.5t59 -51.5t59 51.5t21 148.5z" />
<glyph unicode="&#x399;" horiz-adv-x="251" d="M227 0h-203v754h203v-754z" />
<glyph unicode="&#x39a;" horiz-adv-x="559" d="M577 0h-215l-140 348q2 -20 3.5 -39t1.5 -39v-270h-203v754h203v-256q0 -17 -1.5 -33.5t-3.5 -33.5l125 323h210l-163 -364z" />
<glyph unicode="&#x39b;" d="M-18 0l174 754h242l173 -754h-213l-69 450q-3 19 -5 42t-7 66q-5 -43 -7 -66t-5 -42l-70 -450h-213z" />
<glyph unicode="&#x39c;" horiz-adv-x="777" d="M786 0h-213l-15 344q-2 35 -2.5 68.5t-2.5 68.5q-3 -40 -8.5 -76t-11.5 -69l-64 -336h-166l-54 336q-5 33 -10 69t-8 76q-1 -35 -3 -68.5t-4 -68.5l-17 -344h-216l88 754h253l46 -273q5 -29 8 -60.5t6 -67.5q3 35 7.5 67t9.5 61l52 273h251z" />
<glyph unicode="&#x39d;" horiz-adv-x="579" d="M24 0v754h194l106 -277q8 -21 15.5 -45t15 -47.5t13.5 -45.5t11 -40q-6 79 -12.5 148.5t-6.5 114.5v192h195v-754h-195l-102 277q-16 43 -29 82.5t-23 75.5q6 -79 9 -138.5t3 -104.5v-192h-194z" />
<glyph unicode="&#x39e;" horiz-adv-x="462" d="M17 573v181h428v-181h-428zM17 0v181h428v-181h-428zM55 296v171h352v-171h-352z" />
<glyph unicode="&#x39f;" horiz-adv-x="604" d="M589 377q0 -87 -20.5 -159t-58.5 -123.5t-91 -79.5t-117 -28q-65 0 -117.5 28t-90.5 79.5t-58.5 123.5t-20.5 159t20.5 159t58.5 123.5t90.5 80t117.5 28.5q64 0 117 -28.5t91 -80t58.5 -123.5t20.5 -159zM378 377q0 97 -20 149t-56 52t-56 -52t-20 -149t20 -148.5 t56 -51.5t56 51.5t20 148.5z" />
<glyph unicode="&#x3a0;" horiz-adv-x="552" d="M528 0h-203v577h-98v-577h-203v754h504v-754z" />
<glyph unicode="&#x3a1;" horiz-adv-x="528" d="M227 0h-203v754h197q81 0 138 -19t94 -52.5t54 -81t17 -104.5q0 -56 -15 -102t-47.5 -79t-82.5 -51t-120 -18h-32v-247zM227 414h19q34 0 55.5 22.5t21.5 62.5q0 35 -19.5 61.5t-57.5 26.5h-19v-173z" />
<glyph unicode="&#x3a3;" horiz-adv-x="470" d="M453 0h-471v16l176 368l-172 358v12h467v-183h-102q-20 0 -38 0.5t-38 5.5l93 -193l-99 -207q20 5 38 5.5t38 0.5h108v-183z" />
<glyph unicode="&#x3a4;" horiz-adv-x="446" d="M325 0h-204v573h-115v181h434v-181h-115v-573z" />
<glyph unicode="&#x3a5;" horiz-adv-x="530" d="M373 0h-204v319l-187 435h212l37 -112q11 -32 19.5 -62.5t15.5 -58.5q7 28 15 58.5t19 62.5l37 112h211l-175 -435v-319z" />
<glyph unicode="&#x3a6;" horiz-adv-x="803" d="M499 714q57 -5 109.5 -27t93 -63t65 -102t24.5 -145t-24.5 -143.5t-65 -98.5t-93 -59.5t-109.5 -25.5v-84h-195v84q-57 5 -110 25.5t-93.5 59.5t-64.5 98.5t-24 143.5t24 145t64.5 102t93.5 63t110 27v74h195v-74zM499 240q45 3 70 38.5t25 98.5t-25 103.5t-70 43.5v-284 zM217 377q0 -63 21 -98.5t66 -38.5v284q-45 -3 -66 -43.5t-21 -103.5z" />
<glyph unicode="&#x3a7;" horiz-adv-x="584" d="M566 0h-226l-36 99q-19 54 -30 103q-6 -23 -13.5 -48.5t-18.5 -54.5l-38 -99h-222l183 391l-173 363h227l34 -102q5 -14 10 -33.5t11 -42.5q6 24 11.5 43t9.5 32l30 103h228l-172 -363z" />
<glyph unicode="&#x3a8;" horiz-adv-x="794" d="M295 171q-52 1 -101.5 20.5t-88.5 59.5t-63 101.5t-24 145.5v256h200l-1 -256q0 -63 18.5 -100t59.5 -37v393h204v-393q41 0 59 37t18 100v256h200v-256q0 -84 -24 -145.5t-63 -101.5t-88.5 -59.5t-101.5 -20.5v-171h-204v171z" />
<glyph unicode="&#x3a9;" horiz-adv-x="672" d="M33 0v181h107q-24 15 -46 36t-39 50t-27 66t-10 82q0 85 27.5 151t72.5 111t102 68t116 23t116 -23t102 -68t72.5 -111t27.5 -151q0 -45 -10 -81.5t-26.5 -65.5t-39 -50.5t-47.5 -36.5h109v-181h-275v203q21 7 36 27.5t24.5 46t14 52.5t4.5 48q0 43 -6.5 80t-20 64 t-34 42t-47.5 15t-47.5 -15t-34 -42t-20 -64t-6.5 -80q0 -21 4.5 -48t14 -52.5t24.5 -45.5t36 -28v-203h-274z" />
<glyph unicode="&#x3aa;" horiz-adv-x="251" d="M227 0h-203v754h203v-754zM294 863q0 -33 -24 -57t-57 -24q-35 0 -59 24t-24 58t24 58t58 24t58 -24.5t24 -58.5zM119 864q0 -17 -7 -32t-18 -26t-26 -17.5t-31 -6.5q-33 0 -57 24.5t-24 57.5q0 34 24 58t57 24q34 0 58 -24t24 -58z" />
<glyph unicode="&#x3ab;" horiz-adv-x="530" d="M373 0h-204v319l-187 435h212l37 -112q11 -32 19.5 -62.5t15.5 -58.5q7 28 15 58.5t19 62.5l37 112h211l-175 -435v-319zM441 863q0 -33 -24 -57t-57 -24q-35 0 -59 24t-24 58t24 58t58 24t58 -24.5t24 -58.5zM252 864q0 -17 -7 -32t-18 -26t-26 -17.5t-31 -6.5 q-33 0 -57 24.5t-24 57.5q0 34 24 58t57 24q34 0 58 -24t24 -58z" />
<glyph unicode="&#x401;" horiz-adv-x="419" d="M24 0v754h378v-177h-175v-110h157v-171h-157v-115h175v-181h-378zM385 863q0 -33 -24 -57t-57 -24q-35 0 -59 24t-24 58t24 58t58 24t58 -24.5t24 -58.5zM196 864q0 -17 -7 -32t-18 -26t-26 -17.5t-31 -6.5q-33 0 -57 24.5t-24 57.5q0 34 24 58t57 24q34 0 58 -24t24 -58 z" />
<glyph unicode="&#x402;" horiz-adv-x="601" d="M309 0h-204v573h-99v181h433v-181h-130v-189q46 101 134 101q64 0 98 -47q36 -48 36 -132v-358q0 -84 -36 -132q-35 -47 -98 -47l-94 195q18 0 25 14t7 51v197q0 36 -7 50t-25 14q-40 0 -40 -63v-227z" />
<glyph unicode="&#x403;" horiz-adv-x="386" d="M24 754h356v-177h-153v-577h-203v754zM358 985l-95 -171h-114l50 171h159z" />
<glyph unicode="&#x404;" horiz-adv-x="470" d="M446 14q-69 -27 -122 -27q-126 0 -213 93q-96 103 -96 294q0 179 91 286q90 108 242 108q25 0 50 -5t51 -14v-215q-47 45 -93 45q-64 0 -98 -53q-21 -32 -28 -73h147v-157h-146q9 -36 26 -63q33 -50 95 -50q53 0 106 49z" />
<glyph unicode="&#x405;" horiz-adv-x="420" d="M18 255q61 -82 130 -82q26 0 42.5 14t16.5 35q0 30 -36 59l-33 26q-66 51 -94.5 100.5t-28.5 112.5q0 52 17.5 97t48.5 78.5t73 53t90 19.5q72 0 146 -39v-230q-25 38 -56.5 60.5t-62.5 22.5q-23 0 -38.5 -13.5t-15.5 -32.5q0 -30 41 -60l33 -24q64 -47 92 -95.5 t28 -113.5q0 -56 -18 -102.5t-49.5 -81t-76 -53.5t-96.5 -19q-71 0 -153 32v236z" />
<glyph unicode="&#x406;" horiz-adv-x="251" d="M227 0h-203v754h203v-754z" />
<glyph unicode="&#x407;" horiz-adv-x="251" d="M227 0h-203v754h203v-754zM294 863q0 -33 -24 -57t-57 -24q-35 0 -59 24t-24 58t24 58t58 24t58 -24.5t24 -58.5zM119 864q0 -17 -7 -32t-18 -26t-26 -17.5t-31 -6.5q-33 0 -57 24.5t-24 57.5q0 34 24 58t57 24q34 0 58 -24t24 -58z" />
<glyph unicode="&#x408;" horiz-adv-x="387" d="M18 222q34 -45 82 -45q62 0 62 94v483h204v-524q0 -115 -50.5 -179t-164.5 -64q-60 0 -133 24v211z" />
<glyph unicode="&#x409;" horiz-adv-x="892" d="M82 754h504v-247h32q115 0 176 -46q89 -66 89 -204q0 -127 -84 -197q-71 -60 -219 -60h-197v578h-97v-343q0 -77 -17 -123.5t-57 -77.5q-16 -13 -31.5 -21t-35 -13t-44.5 -7t-59 -2h-24v190q36 0 50 22t14 67v484zM586 165h15q33 0 54 24q22 25 22 64q0 40 -22 62.5 t-59 22.5h-10v-173z" />
<glyph unicode="&#x40a;" horiz-adv-x="834" d="M24 754h203v-267h98v267h203v-247h32q116 0 175 -46q90 -66 90 -204q0 -127 -84 -197q-72 -60 -213 -60h-203v303h-98v-303h-203v754zM528 165h14q34 0 55 24q21 25 21 64q0 40 -21.5 62.5t-59.5 22.5h-9v-173z" />
<glyph unicode="&#x40b;" horiz-adv-x="595" d="M309 0h-204v573h-99v181h433v-181h-130v-189q46 101 134 101q64 0 98 -47q36 -48 36 -132v-306h-196v226q0 36 -7 50t-25 14q-40 0 -40 -63v-227z" />
<glyph unicode="&#x40c;" horiz-adv-x="559" d="M577 0h-215l-140 348q2 -20 3.5 -39t1.5 -39v-270h-203v754h203v-256q0 -17 -1.5 -33.5t-3.5 -33.5l125 323h210l-163 -364zM332 782h-117l57 164h164z" />
<glyph unicode="&#x40e;" horiz-adv-x="530" d="M176 946q11 -35 31 -55.5t56 -20.5t56 20.5t31 55.5h90q-8 -77 -53 -120.5t-124 -43.5t-124 43.5t-53 120.5h90zM49 0l124 292l-191 462h212l51 -191q5 -14 9 -31t10 -46q12 47 18.5 74t12.5 47l42 147h211l-296 -754h-203z" />
<glyph unicode="&#x40f;" horiz-adv-x="552" d="M24 754h203v-573h98v573h203v-754h-150v-143h-204v143h-150v754z" />
<glyph unicode="&#x410;" d="M571 0h-210l-17 96h-135l-17 -96h-210l174 754h242zM320 257l-29 203q-3 19 -6 45t-8 69q-5 -43 -8 -69t-6 -45l-30 -203h87z" />
<glyph unicode="&#x411;" horiz-adv-x="533" d="M24 754h356v-181h-153v-66h32q116 0 175 -46q90 -66 90 -204q0 -127 -84 -197q-72 -60 -219 -60h-197v754zM227 165h15q33 0 54 24q22 27 22 64q0 40 -22 62.5t-59 22.5h-10v-173z" />
<glyph unicode="&#x412;" horiz-adv-x="545" d="M24 754h237q67 0 116.5 -16t81.5 -44.5t47.5 -68t15.5 -85.5q0 -141 -140 -153q81 -12 117.5 -52.5t36.5 -118.5q0 -48 -16.5 -88t-46.5 -68.5t-72 -44t-92 -15.5h-285v754zM227 164q6 -1 10.5 -1h7.5q38 0 60.5 19.5t22.5 53.5t-22.5 53t-62.5 19h-16v-144zM227 461h14 q37 0 58 17t21 48q0 65 -72 65h-8t-13 -1v-129z" />
<glyph unicode="&#x413;" horiz-adv-x="386" d="M24 754h356v-177h-153v-577h-203v754z" />
<glyph unicode="&#x414;" horiz-adv-x="714" d="M115 754h504v-573h74v-324h-203v143h-268v-143h-204v324h44q26 0 39.5 23.5t13.5 68.5v481zM318 578v-346v-11v-15t-0.5 -15t-1.5 -10h100v397h-98z" />
<glyph unicode="&#x415;" horiz-adv-x="419" d="M24 0v754h378v-177h-175v-110h157v-171h-157v-115h175v-181h-378z" />
<glyph unicode="&#x416;" horiz-adv-x="858" d="M657 0l-135 347l5 -347h-196l6 347l-135 -347h-220l182 390l-163 364h216l120 -324l-6 324h196l-5 -324l120 324h214l-162 -364l182 -390h-219z" />
<glyph unicode="&#x417;" horiz-adv-x="411" d="M12 750q26 8 53.5 13t64.5 5q132 0 199.5 -54.5t67.5 -158.5q0 -44 -12.5 -80.5t-38.5 -59.5q-8 -10 -18.5 -17.5t-28.5 -19.5q54 -25 78.5 -68t24.5 -111q0 -100 -63 -156t-176 -56q-47 0 -80 5.5t-71 19.5v218q15 -14 26.5 -23.5t22.5 -15t22.5 -8t26.5 -2.5 q35 0 58 18t23 44q0 25 -20 39t-56 14h-32v162h32q35 0 56.5 15t21.5 41q0 31 -22 47.5t-59 16.5q-31 0 -52.5 -8.5t-47.5 -34.5v215z" />
<glyph unicode="&#x418;" horiz-adv-x="579" d="M361 0v192q0 45 3 104.5t9 138.5q-10 -36 -23 -75.5t-29 -82.5l-102 -277h-195v754h195v-192q0 -45 -6.5 -114.5t-12.5 -148.5q5 18 11 40t13.5 45.5t15 47.5t15.5 45l106 277h194v-754h-194z" />
<glyph unicode="&#x419;" horiz-adv-x="579" d="M361 0v192q0 45 3 104.5t9 138.5q-10 -36 -23 -75.5t-29 -82.5l-102 -277h-195v754h195v-192q0 -45 -6.5 -114.5t-12.5 -148.5q5 18 11 40t13.5 45.5t15 47.5t15.5 45l106 277h194v-754h-194zM190 946q11 -35 31 -55.5t56 -20.5t56 20.5t31 55.5h90q-8 -77 -53 -120.5 t-124 -43.5t-124 43.5t-53 120.5h90z" />
<glyph unicode="&#x41a;" horiz-adv-x="559" d="M577 0h-215l-140 348q2 -20 3.5 -39t1.5 -39v-270h-203v754h203v-256q0 -17 -1.5 -33.5t-3.5 -33.5l125 323h210l-163 -364z" />
<glyph unicode="&#x41b;" horiz-adv-x="610" d="M82 754h504v-754h-203v578h-97v-343q0 -77 -17 -123.5t-57 -77.5q-16 -13 -31.5 -21t-35 -13t-44.5 -7t-59 -2h-24v190q36 0 50 22t14 67v484z" />
<glyph unicode="&#x41c;" horiz-adv-x="777" d="M786 0h-213l-15 344q-2 35 -2.5 68.5t-2.5 68.5q-3 -40 -8.5 -76t-11.5 -69l-64 -336h-166l-54 336q-5 33 -10 69t-8 76q-1 -35 -3 -68.5t-4 -68.5l-17 -344h-216l88 754h253l46 -273q5 -29 8 -60.5t6 -67.5q3 35 7.5 67t9.5 61l52 273h251z" />
<glyph unicode="&#x41d;" horiz-adv-x="552" d="M528 0h-203v303h-98v-303h-203v754h203v-267h98v267h203v-754z" />
<glyph unicode="&#x41e;" horiz-adv-x="604" d="M589 377q0 -87 -20.5 -159t-58.5 -123.5t-91 -79.5t-117 -28q-65 0 -117.5 28t-90.5 79.5t-58.5 123.5t-20.5 159t20.5 159t58.5 123.5t90.5 80t117.5 28.5q64 0 117 -28.5t91 -80t58.5 -123.5t20.5 -159zM378 377q0 97 -20 149t-56 52t-56 -52t-20 -149t20 -148.5 t56 -51.5t56 51.5t20 148.5z" />
<glyph unicode="&#x41f;" horiz-adv-x="552" d="M528 0h-203v577h-98v-577h-203v754h504v-754z" />
<glyph unicode="&#x420;" horiz-adv-x="528" d="M227 0h-203v754h197q81 0 138 -19t94 -52.5t54 -81t17 -104.5q0 -56 -15 -102t-47.5 -79t-82.5 -51t-120 -18h-32v-247zM227 414h19q34 0 55.5 22.5t21.5 62.5q0 35 -19.5 61.5t-57.5 26.5h-19v-173z" />
<glyph unicode="&#x421;" horiz-adv-x="470" d="M446 14q-68 -27 -122 -27q-68 0 -124.5 26.5t-97.5 77t-64 122.5t-23 164q0 87 23.5 159t67 123.5t105 80t137.5 28.5q26 0 50.5 -5t50.5 -14v-215q-47 45 -93 45q-66 0 -99.5 -54t-33.5 -148q0 -91 33 -142.5t96 -51.5q54 0 106 49z" />
<glyph unicode="&#x422;" horiz-adv-x="446" d="M325 0h-204v573h-115v181h434v-181h-115v-573z" />
<glyph unicode="&#x423;" horiz-adv-x="530" d="M49 0l124 292l-191 462h212l51 -191q5 -14 9 -31t10 -46q12 47 18.5 74t12.5 47l42 147h211l-296 -754h-203z" />
<glyph unicode="&#x424;" horiz-adv-x="752" d="M278 825h196v-90q33 -2 63.5 -12t59.5 -31q68 -49 104 -125.5t36 -184.5q0 -103 -29 -180.5t-87 -123.5q-32 -26 -70 -41.5t-77 -18.5v-89h-196v89q-39 3 -76.5 18.5t-69.5 41.5q-57 47 -87 124t-30 180q0 217 140 310q57 38 123 43v90zM278 557q-32 -14 -50 -61.5 t-18 -118.5q0 -75 17.5 -121t50.5 -60v361zM474 196q34 15 51 61.5t17 118.5q0 78 -18.5 122.5t-49.5 58.5v-361z" />
<glyph unicode="&#x425;" horiz-adv-x="548" d="M566 0h-226l-36 99q-19 54 -30 103q-6 -23 -13.5 -48.5t-18.5 -54.5l-38 -99h-222l183 391l-173 363h227l34 -102q5 -14 10 -33.5t11 -42.5q6 24 11.5 43t9.5 32l30 103h228l-172 -363z" />
<glyph unicode="&#x426;" horiz-adv-x="623" d="M24 754h203v-573h98v573h203v-573h74v-324h-203v143h-375v754z" />
<glyph unicode="&#x427;" horiz-adv-x="537" d="M9 754h203v-300q0 -31 13 -45t44 -14q23 0 40 3v356h204v-754h-204v217q-12 -2 -23 -3t-23 -1q-118 0 -182 56q-72 64 -72 202v283z" />
<glyph unicode="&#x428;" horiz-adv-x="839" d="M24 754h203v-573h91v573h203v-573h91v573h203v-754h-791v754z" />
<glyph unicode="&#x429;" horiz-adv-x="910" d="M24 754h203v-573h91v573h203v-573h91v573h203v-573h74v-324h-203v143h-662v754z" />
<glyph unicode="&#x42a;" horiz-adv-x="667" d="M6 754h356v-247h32q116 0 175 -46q89 -65 89 -204q0 -128 -84 -197q-71 -60 -218 -60h-198v573h-152v181zM362 165h14q34 0 55 24q21 25 21 64q0 40 -21.5 62.5t-59.5 22.5h-9v-173z" />
<glyph unicode="&#x42b;" horiz-adv-x="823" d="M24 754h203v-247h32q116 0 175 -46q90 -66 90 -204q0 -127 -84 -197q-72 -60 -219 -60h-197v754zM227 165h15q33 0 54 24q22 27 22 64q0 40 -22 62.5t-59 22.5h-10v-173zM799 0h-204v754h204v-754z" />
<glyph unicode="&#x42c;" horiz-adv-x="533" d="M24 754h203v-247h32q116 0 175 -46q90 -66 90 -204q0 -127 -84 -197q-72 -60 -219 -60h-197v754zM227 165h15q33 0 54 24q22 27 22 64q0 40 -22 62.5t-59 22.5h-10v-173z" />
<glyph unicode="&#x42d;" horiz-adv-x="470" d="M24 740q67 27 122 27q126 0 213 -93q96 -104 96 -294q0 -179 -91 -286q-90 -108 -242 -108q-25 0 -50 5t-51 14v215q45 -45 93 -45q64 0 98 53q9 14 16 31t11 37h-147v157h148q-9 40 -27 68q-33 50 -95 50q-53 0 -106 -49z" />
<glyph unicode="&#x42e;" horiz-adv-x="882" d="M867 375q0 -172 -79 -281q-77 -107 -204 -107q-110 0 -191 82q-80 84 -96 234h-70v-303h-203v754h203v-267h74q21 126 97 202q79 79 184 79q130 0 207 -107q78 -107 78 -286zM655 373q0 51 -4 88t-13 63q-18 54 -55 54t-58 -54q-21 -51 -21 -147q0 -94 20 -148 q20 -52 55 -52t56 52q20 54 20 144z" />
<glyph unicode="&#x42f;" horiz-adv-x="542" d="M134 313q-115 52 -115 189q0 56 16.5 102.5t52.5 79.5t93.5 51.5t139.5 18.5h197v-754h-203v309l-113 -309h-220zM315 587h-14q-40 0 -61 -23t-21 -66t21 -66.5t61 -23.5h14v179z" />
<glyph unicode="&#x432;" horiz-adv-x="475" d="M24 528h244q91 0 138 -35t47 -104q0 -51 -26 -82t-72 -36q111 -24 111 -127q0 -32 -11 -58.5t-31.5 -45.5t-49 -29.5t-62.5 -10.5h-288v528zM236 136q25 0 39 10.5t14 29.5t-15 29.5t-42 10.5h-12v-80h16zM232 323q26 0 37.5 9t11.5 26q0 36 -44 36h-17v-71h12z" />
<glyph unicode="&#x43b;" horiz-adv-x="561" d="M341 370h-72v-141q0 -59 -11 -103.5t-38.5 -74t-73.5 -44t-116 -14.5h-18v167q32 0 46.5 21t14.5 67v280h464v-528h-196v370z" />
<glyph unicode="&#x452;" horiz-adv-x="549" d="M528 -52q0 -84 -36 -132q-35 -47 -99 -47l-93 195q18 0 25 14t7 51v250q0 37 -7 51t-25 14q-41 0 -41 -71v-273h-196v607h-45v109h45v109h196v-109h106v-109h-106v-170q46 102 134 102q64 0 99 -47q36 -48 36 -132v-412z" />
<glyph unicode="&#x490;" horiz-adv-x="386" d="M24 754h153v86h203v-262h-153v-578h-203v754z" />
<glyph unicode="&#x1e9e;" horiz-adv-x="626" d="M257 224q22 -26 43.5 -39t47.5 -13q21 0 35.5 8t23.5 19.5t13 24.5t4 24q0 16 -8 35t-26 36.5t-47.5 30.5t-72.5 19l94 214h-71q-23 0 -36 -6t-19.5 -17t-8.5 -27t-2 -36v-497h-203v487q0 66 10.5 116t38.5 83.5t78 50.5t129 17h339l-141 -311q43 -26 70 -52t42.5 -53 t21.5 -55t6 -57q0 -58 -18.5 -102.5t-50.5 -75t-75.5 -46t-94.5 -15.5q-16 0 -29.5 2t-27.5 6t-29.5 11t-35.5 16v202z" />
<glyph unicode="&#x2000;" horiz-adv-x="492" />
<glyph unicode="&#x2001;" horiz-adv-x="985" />
<glyph unicode="&#x2002;" horiz-adv-x="492" />
<glyph unicode="&#x2003;" horiz-adv-x="985" />
<glyph unicode="&#x2004;" horiz-adv-x="328" />
<glyph unicode="&#x2005;" horiz-adv-x="246" />
<glyph unicode="&#x2006;" horiz-adv-x="164" />
<glyph unicode="&#x2007;" horiz-adv-x="164" />
<glyph unicode="&#x2008;" horiz-adv-x="150" />
<glyph unicode="&#x2009;" horiz-adv-x="197" />
<glyph unicode="&#x200a;" horiz-adv-x="54" />
<glyph unicode="&#x2010;" horiz-adv-x="269" d="M257 302h-245v150h245v-150z" />
<glyph unicode="&#x2011;" horiz-adv-x="269" d="M257 302h-245v150h245v-150z" />
<glyph unicode="&#x2012;" horiz-adv-x="269" d="M257 302h-245v150h245v-150z" />
<glyph unicode="&#x2013;" horiz-adv-x="469" d="M469 196h-469v151h469v-151z" />
<glyph unicode="&#x2014;" horiz-adv-x="735" d="M735 196h-735v151h735v-151z" />
<glyph unicode="&#x2015;" horiz-adv-x="735" d="M735 196h-735v151h735v-151z" />
<glyph unicode="&#x2018;" horiz-adv-x="293" d="M0 391l132 363h161l-93 -363h-200z" />
<glyph unicode="&#x2019;" horiz-adv-x="301" d="M299 754l-132 -363h-160l92 363h200z" />
<glyph unicode="&#x201a;" horiz-adv-x="292" d="M292 180l-132 -362h-160l92 362h200z" />
<glyph unicode="&#x201c;" horiz-adv-x="560" d="M0 391l132 363h161l-93 -363h-200zM268 391l132 363h160l-92 -363h-200z" />
<glyph unicode="&#x201d;" horiz-adv-x="560" d="M560 754l-131 -363h-161l92 363h200zM293 754l-132 -363h-161l93 363h200z" />
<glyph unicode="&#x201e;" horiz-adv-x="560" d="M560 180l-132 -362h-161l92 362h201zM292 180l-132 -362h-160l92 362h200z" />
<glyph unicode="&#x2020;" horiz-adv-x="543" d="M362 -235h-181v717h-181v158h181v185h181v-185h181v-158h-181v-717z" />
<glyph unicode="&#x2021;" horiz-adv-x="543" d="M181 483h-181v156h181v186h181v-186h181v-156h-181v-225h181v-155h-181v-338h-181v338h-181v155h181v225z" />
<glyph unicode="&#x2022;" horiz-adv-x="310" d="M0 384q0 32 12 60.5t33 49.5t49.5 33t60.5 12t60.5 -12t49.5 -33t33 -49.5t12 -60.5t-12 -60.5t-33 -49.5t-49.5 -33t-60.5 -12t-60.5 12t-49.5 33t-33 49.5t-12 60.5z" />
<glyph unicode="&#x2026;" horiz-adv-x="798" d="M285 101q0 24 9 44.5t24.5 36t36 24.5t44.5 9t44.5 -9t36 -24.5t24.5 -36t9 -44.5t-9 -44.5t-24.5 -36t-36 -24.5t-44.5 -9t-44.5 9t-36 24.5t-24.5 36t-9 44.5zM555 101q0 24 9 44.5t24.5 36t36 24.5t44.5 9t44.5 -9t36 -24.5t24.5 -36t9 -44.5t-9 -44.5t-24.5 -36 t-36 -24.5t-44.5 -9t-44.5 9t-36 24.5t-24.5 36t-9 44.5zM15 101q0 24 9 44.5t24.5 36t36 24.5t44.5 9t44.5 -9t36 -24.5t24.5 -36t9 -44.5t-9 -44.5t-24.5 -36t-36 -24.5t-44.5 -9t-44.5 9t-36 24.5t-24.5 36t-9 44.5z" />
<glyph unicode="&#x202f;" horiz-adv-x="197" />
<glyph unicode="&#x2030;" horiz-adv-x="1082" d="M1082 173q0 -41 -11.5 -75t-33 -58.5t-52 -38t-67.5 -13.5q-38 0 -68 13.5t-51.5 38t-33 58.5t-11.5 75t11.5 75t33 58.5t51.5 38t68 13.5q37 0 67.5 -13.5t52 -38t33 -58.5t11.5 -75zM950 173q0 73 -32 73t-32 -73q0 -74 32 -74t32 74zM131 -26l-78 56l533 755l81 -57z M328 581q0 -41 -11.5 -75t-33 -58.5t-52 -38t-67.5 -13.5q-38 0 -68 13.5t-51.5 38t-33 58.5t-11.5 75t11.5 75t33 58.5t51.5 38t68 13.5q37 0 67.5 -13.5t52 -38t33 -58.5t11.5 -75zM196 581q0 73 -32 73t-32 -73q0 -74 32 -74t32 74zM720 173q0 -41 -11.5 -75t-33 -58.5 t-52 -38t-67.5 -13.5q-38 0 -68 13.5t-51.5 38t-33 58.5t-11.5 75t11.5 75t33 58.5t51.5 38t68 13.5q37 0 67.5 -13.5t52 -38t33 -58.5t11.5 -75zM588 173q0 73 -32 73t-32 -73q0 -74 32 -74t32 74z" />
<glyph unicode="&#x2039;" horiz-adv-x="260" d="M172 44l-172 227l172 228l88 -66l-129 -162l129 -161z" />
<glyph unicode="&#x203a;" horiz-adv-x="260" d="M88 44l-88 66l129 161l-129 162l88 66l172 -228z" />
<glyph unicode="&#x2044;" horiz-adv-x="519" d="M81 -50l-81 45l435 809l84 -44z" />
<glyph unicode="&#x205f;" horiz-adv-x="246" />
<glyph unicode="&#x20aa;" horiz-adv-x="880" d="M0 0v754h392q114 0 182 -67t68 -196v-232h-166v214q0 25 -7.5 42t-19.5 28t-27 16t-30 5h-220v-564h-172zM410 498v-308h218q15 0 29 5t25.5 16t18.5 28t7 42v473h172v-491q0 -65 -18 -114t-51 -82t-79.5 -50t-103.5 -17h-390v498h172z" />
<glyph unicode="&#x20ac;" horiz-adv-x="530" d="M15 487h43q13 65 40.5 117t66 88.5t87.5 56t105 19.5q13 0 35.5 -2.5t46 -7t45 -11t34.5 -14.5l-49 -181q-35 27 -83 27q-43 0 -71.5 -23.5t-43.5 -68.5h181l-21 -81h-175v-29v-15.5t1 -15.5h158l-21 -81h-121q31 -82 113 -82q26 0 45.5 6.5t37.5 20.5l49 -188 q-13 -8 -34.5 -14.5t-45 -11t-46 -7t-35.5 -2.5q-56 0 -104.5 19t-87.5 55t-66.5 87.5t-40.5 116.5h-43v81h34q-1 8 -1 15.5v15.5v29h-33v81z" />
<glyph unicode="&#x2122;" horiz-adv-x="744" d="M194 324h-126v321h-68v109h262v-109h-68v-321zM744 324h-132l-15 221l-37 -221h-102l-37 221l-15 -221h-132l51 430h145l39 -185l39 185h145z" />
<glyph unicode="&#x2212;" horiz-adv-x="513" d="M0 326v117h513v-117h-513z" />
<glyph unicode="&#x2215;" horiz-adv-x="519" d="M81 -50l-81 45l435 809l84 -44z" />
<glyph unicode="&#x2219;" horiz-adv-x="230" d="M0 379q0 24 9 44.5t25 36.5t36.5 25t44.5 9t44.5 -9t36.5 -25t25 -36.5t9 -44.5t-9 -44.5t-25 -36.5t-36.5 -25t-44.5 -9t-44.5 9t-36.5 25t-25 36.5t-9 44.5z" />
<glyph unicode="&#x25ca;" horiz-adv-x="588" d="M294 784l294 -407l-294 -406l-294 406zM294 684l-223 -307l223 -306l223 306z" />
<glyph unicode="&#x25fc;" horiz-adv-x="530" d="M0 530h530v-530h-530v530z" />
<glyph unicode="&#xe001;" horiz-adv-x="482" d="M375 234q28 0 51 10.5t41 28.5q-14 -36 -37.5 -66t-54 -51.5t-67 -34t-76.5 -12.5q-72 0 -128 34t-89 91h40v154h2l118 -154h65v250h-65v-152h-3l-117 152h-40q33 57 90 91t127 34q40 0 76.5 -12t67 -33.5t54 -51.5t36.5 -66q-35 38 -91 38h-92v-250h92zM348 429h15 q31 0 51 -18t20 -52q0 -36 -21.5 -52.5t-50.5 -16.5h-14v139z" />
<glyph unicode="&#xe003;" horiz-adv-x="317" d="M0 370v158h317v-158h-317z" />
<glyph unicode="&#xe010;" horiz-adv-x="536" d="M21 487h43q13 65 40.5 117t66 88.5t87.5 56t105 19.5q13 0 35.5 -2.5t46 -7t45 -11t34.5 -14.5l-49 -181q-35 27 -83 27q-43 0 -71.5 -23.5t-43.5 -68.5h181l-21 -81h-175v-29v-15.5t1 -15.5h158l-21 -81h-121q31 -82 113 -82q26 0 45.5 6.5t37.5 20.5l49 -188 q-13 -8 -34.5 -14.5t-45 -11t-46 -7t-35.5 -2.5q-56 0 -104.5 19t-87.5 55t-66.5 87.5t-40.5 116.5h-43v81h34q-1 8 -1 15.5v15.5v29h-33v81z" />
<glyph unicode="&#xe011;" horiz-adv-x="540" d="M523 580q-40 7 -73.5 8.5t-73.5 1.5q-33 0 -55.5 -6t-37.5 -17.5t-24.5 -29t-16.5 -40.5h227v-81h-454q5 79 27 144t62.5 111.5t99.5 71.5t139 25q64 0 105 -3.5t75 -9.5v-175zM523 0q-34 -6 -75 -9.5t-105 -3.5q-80 0 -139 26.5t-99.5 74t-62.5 113.5t-27 146h454v-82 h-227q7 -23 16.5 -40.5t24.5 -29t37.5 -17.5t55.5 -6q40 0 73.5 1.5t73.5 8.5v-182z" />
<glyph unicode="&#xe012;" horiz-adv-x="398" d="M0 0v754h398v-754h-398zM373 21l4 4v708h-356v-712h352z" />
<glyph unicode="&#xe150;" horiz-adv-x="1516" d="M467 347l147 407h96l-147 -407h-96zM195 347l147 407h104l-15 -179l65 179h97l-148 -407h-95l12 196l-71 -196h-96zM1516 514l-1110 -469q-50 -21 -111.5 -39.5t-120.5 -18.5q-30 0 -61 8.5t-56 27t-41 48t-16 72.5q0 47 18.5 94.5t48.5 95t69 94t80 91.5 q-7 -11 -17 -29.5t-19 -42t-15.5 -49.5t-6.5 -52q0 -24 7 -48t24.5 -44t46.5 -32.5t73 -12.5q51 0 111 16l465 123h-140v174l-64 -174h-96l147 407h96l-45 -118l98 118h270l-28 -76h-83l-29 -81h83l-26 -72h-84l-35 -97h104l-15 -41zM827 372l142 373l-7 -6l-135 -163v-204z " />
<glyph unicode="&#xe151;" horiz-adv-x="1516" d="M406 45q-51 -21 -111.5 -39.5t-120.5 -18.5q-30 0 -61 8.5t-56 27t-41 48t-16 72.5q0 47 18.5 94.5t48.5 95t69 94t80 91.5q-7 -11 -17 -29.5t-19 -42t-15.5 -49.5t-6.5 -52q0 -24 7 -48t24.5 -44t46.5 -32.5t73 -12.5q53 0 111 16l1096 289z" />
<glyph unicode="&#xe152;" horiz-adv-x="782" d="M712 336q9 -5 19.5 -13t19.5 -19.5t15 -26.5t6 -34q0 -31 -15.5 -51.5t-35.5 -33t-39.5 -17.5t-27.5 -5h-2h-3q-7 0 -7 6q0 3 3 5q1 1 5 5.5t8 12t7.5 17.5t3.5 21q0 18 -8.5 31t-18 21.5t-17.5 12.5t-7 4l-77 36q-30 14 -58 26.5t-37 17.5q-43 19 -43 21l2 1 q1 0 14.5 -0.5t34.5 -1t45.5 -1.5t47.5 -2q45 -2 89 -8.5t76 -24.5zM276 272q-32 -28 -54.5 -45.5t-39 -27t-27.5 -14t-19 -6.5t-18 -4t-21 -2q-23 0 -46.5 10.5t-39.5 42.5q-11 22 -11 46q0 17 5 31.5t11 26.5t12 20t8 12q5 5 7 5q6 0 6 -7q3 -16 7 -30t12 -24t20.5 -16 t32.5 -6q17 0 26 3l10 3l17 6q11 4 32.5 11.5t57.5 21.5q3 1 21 8t38.5 14.5t37.5 13.5t18 6l1 -1l-1 -1q-5 -5 -16.5 -16t-25.5 -24.5t-30 -28.5t-31 -28zM70 417q-9 6 -19.5 14.5t-19.5 19.5t-15 24.5t-6 30.5q0 15 6 33q10 29 29 44t39 23q24 10 48 11q8 0 8 -5 q0 -4 -2 -6q-4 -4 -14.5 -18.5t-10.5 -36.5q0 -18 8 -31t18 -22t18 -13t7 -4l15 -7.5t38 -18t50 -23t51 -23.5t40.5 -18.5t19.5 -8.5q0 -2 0.5 -1t0.5 -1l-1 -1h-2q-1 0 -14.5 0.5t-34 1t-45 1.5t-46.5 2q-15 1 -36.5 2.5t-45 5t-46 9.5t-38.5 16zM402 383q0 1 1 2 q8 8 17 16.5t20.5 19t27.5 25t39 35.5q17 16 37.5 33.5t43 32t46.5 24t49 9.5q43 0 71 -28t28 -70q0 -17 -5 -32t-11 -27t-12 -20t-8 -12q-5 -5 -7 -5q-6 0 -6 7q0 1 -1.5 13.5t-8.5 26t-22 25t-41 11.5q-8 0 -14 -1t-11 -2l-10 -3l-43 -15l-64 -23q-8 -3 -26 -10 t-37.5 -14.5t-34.5 -13t-16 -5.5q-2 0 -2 1zM193 632q-5 18 -5 37q0 45 28 72t67 27q18 0 35.5 -5t31.5 -12.5t22.5 -15t8.5 -11.5q0 -6 -7 -6q-3 0 -19.5 -2.5t-30.5 -13.5q-16 -12 -20.5 -29t-4.5 -29q0 -7 0.5 -13t1.5 -11l3 -10l6 -18q4 -11 11.5 -32t21.5 -57 q1 -4 8 -22t14.5 -38.5t13.5 -36.5t6 -17t-1 -1h-1l-10.5 10.5t-24 24.5t-31 33.5t-31.5 35.5q-29 32 -46.5 55t-27 39t-13.5 27t-6 19zM564 655q-18 0 -31 -8t-21.5 -17.5t-12.5 -18l-4 -8.5l-99 -213q0 -1 -3 -1v2q0 1 0.5 15t1 34.5t1.5 45t2 47.5q2 41 6 70t9 48t10 30 t8 16q6 10 14 20.5t19.5 19.5t26 14.5t32.5 5.5q34 0 57 -18.5t35 -42.5q11 -23 14 -42t3 -21q0 -5 -6 -5l-6 2q-2 3 -17.5 14t-38.5 11zM590 122q4 -15 4 -37q0 -20 -4 -33q-6 -22 -30.5 -43.5t-62.5 -21.5q-17 0 -32 4.5t-27 10.5t-20 12l-12 9q-5 2 -5 7q0 4 6 6 q15 3 29 6.5t24.5 11t17 20t6.5 33.5q0 8 -1 14.5t-2 11.5l-3 10l-15 42q-6 17 -12.5 35.5t-10.5 30.5q-3 7 -10 25.5t-14.5 38t-13 34.5t-5.5 16t1 1h1l23 -24l30 -32.5t44 -47.5q10 -11 24.5 -28t28.5 -36.5t25.5 -39.5t15.5 -36zM386 364q0 1 2 1q1 0 1 -2 q0 -1 -0.5 -14.5t-1 -34.5t-1.5 -45.5t-2 -47.5q-1 -14 -3 -35.5t-5.5 -44.5t-9.5 -45.5t-15 -38.5q-6 -10 -14.5 -20.5t-19.5 -19.5t-25 -14.5t-32 -5.5q-6 0 -14 1t-17 4q-28 10 -43.5 29t-23 38.5t-9.5 34t-2 16.5q0 6 5 6q4 0 6 -2q1 -1 6 -5t12.5 -8.5t17.5 -8t21 -3.5 q17 0 30 8t21 18q5 5 9 11.5t8 14.5q1 0 7 11.5t14.5 30.5t19 42t21 47t20.5 45.5t17 36.5z" />
<glyph unicode="&#xe153;" horiz-adv-x="2334" d="M1664 406q21 0 36.5 8t26 21.5t16 31t5.5 35.5q0 51 -27 72t-69 19v-186zM406 186q-8 -42 -28.5 -77t-51 -60.5t-70 -39.5t-85.5 -14q-39 0 -78 5t-75 20v236q10 -16 24 -31t31 -27t35.5 -19t38.5 -7q21 0 40.5 13t19.5 37q0 25 -16 42q-12 15 -34 29q-30 23 -55.5 46 t-45.5 50q-19 26 -30 57.5t-11 73.5q0 33 11.5 75t38.5 78.5t71 62t109 25.5q34 0 68.5 -9t66.5 -23v-212q-20 26 -49.5 45.5t-59.5 19.5q-17 0 -35 -12t-18 -35q0 -12 5.5 -22.5t13.5 -18.5q8 -9 18.5 -16.5t18.5 -14.5q32 -23 58 -45t43 -48q22 -31 31 -70v454h214 l97 -338v338h197v-753h-168l-142 369v-369h-198v185zM1448 755h198q54 0 101.5 -7t85.5 -25t65.5 -48t41.5 -76q9 30 26 59t43.5 52t63.5 37.5t85 14.5q37 0 75 -7t71 -24v-229q-9 14 -22.5 28.5t-29 26t-33 19t-35.5 7.5q-19 0 -36.5 -12t-17.5 -34q0 -13 6 -23t14 -19 t18.5 -16.5t18.5 -14.5q32 -23 58 -45t43 -48q18 -25 27.5 -56.5t9.5 -73.5q0 -53 -17.5 -98t-49.5 -78t-76.5 -51.5t-97.5 -18.5q-24 0 -49 1.5t-48 6.5l1 -2h-222l-115 311q1 -28 2 -55.5t1 -55.5v-200h-383l-124 323v-323h-203v753h203v-217l103 218h198zM1448 717 l-141 -291l141 -338v629zM1942 435q-11 -40 -38 -71.5t-70 -48.5l95 -195v136q10 -16 24.5 -31t31.5 -27t36 -19t38 -7q21 0 40.5 13t19.5 37q0 25 -16 42q-8 8 -16 14.5t-18 14.5q-30 23 -56 46t-46 50q-8 11 -14 22.5t-11 23.5z" />
<glyph unicode="&#xe154;" horiz-adv-x="1516" d="M467 347l147 407h96l-147 -407h-96zM195 347l147 407h104l-15 -178l65 178h97l-148 -407h-95l12 196l-71 -196h-96zM1516 514l-1110 -468q-51 -21 -111 -40t-120 -19q-31 0 -62 8.5t-56 27t-41 48t-16 72.5q0 47 18.5 95t48.5 95.5t69 94t80 91.5q-7 -11 -17 -29.5 t-19 -42t-15.5 -49.5t-6.5 -52q0 -24 7.5 -48.5t25 -44.5t47 -32.5t73.5 -12.5q24 0 51.5 4t57.5 12l465 123h-141v174l-63 -174h-96l146 407h97l-45 -118l97 118h271l-28 -75h-84l-28 -81h83l-26 -72h-84l-35 -97h103l-15 -41zM834 373l135 373l-7 -6l-135 -164zM1008 277 q12 8 30.5 12t49.5 4q27 0 48 -10t21 -35q0 -14 -4 -23l-12 -32h-69l8 21q4 9 4 16q0 5 -3.5 7.5t-14.5 2.5q-17 0 -28 -12.5t-11 -28.5q0 -5 3 -7.5l9 -7.5l38 -27q8 -6 21.5 -17t12.5 -28q0 -17 -7 -35q-9 -24 -18.5 -41t-24 -28t-35 -16t-50.5 -5q-76 0 -76 45q0 11 5 26 l16 46h70l-12 -33q-5 -15 -5 -19q0 -12 20 -12q17 0 30 12t13 42q0 10 -12 18q-28 18 -42.5 27t-20.5 15t-6.5 11t-0.5 14q0 6 2.5 18.5t9 27.5t16.5 29t25 23zM1205 114q-4 -10 -7.5 -18t-5.5 -16l-12 -34h23q20 0 27 4t14 22l6 16q4 9 4 15q0 11 -26 11h-23zM1248 233 l-24 -65h21q17 0 26 3.5t16 20.5l6 15q2 6 2 12q0 10 -8 12t-24 2h-15zM1293 286q22 0 36 -4t21.5 -10.5t10 -15t2.5 -16.5q0 -11 -3 -21l-8 -29q-8 -22 -16.5 -33.5t-31.5 -16.5q20 -8 20 -23q0 -7 -2.5 -14t-5.5 -17l-9 -26q-5 -12 -10.5 -23.5t-16.5 -21t-29 -15.5 t-48 -6h-110l105 292h95z" />
<glyph unicode="&#xe179;" horiz-adv-x="161" d="M263 223l-132 -362h-161l92 362h201z" />
<glyph unicode="&#xe180;" horiz-adv-x="544" d="M538 378q0 -88 -18 -160t-52 -123.5t-83.5 -79.5t-112.5 -28t-112.5 28t-83.5 79.5t-52 123.5t-18 160t18 160t52 123t83.5 79t112.5 28t112.5 -28t83.5 -79t52 -123t18 -160zM338 378q0 109 -16 161.5t-50 52.5t-50 -52.5t-16 -161.5q0 -215 66 -215t66 215z" />
<glyph unicode="&#xe181;" horiz-adv-x="544" d="M407 0h-204v577h-81v177h285v-754z" />
<glyph unicode="&#xe182;" horiz-adv-x="544" d="M522 0h-519l206 275q35 47 59 82.5t38.5 65t20.5 55.5t6 55q0 31 -12.5 49t-35.5 18q-48 0 -48 -92v-11.5t1 -16.5h-197q-1 7 -1.5 15.5t-0.5 15.5q0 57 19 104.5t53 81.5t80 52.5t99 18.5q51 0 95.5 -17.5t77 -50t51 -78t18.5 -101.5q0 -45 -11 -87t-35 -84.5t-61.5 -87 t-90.5 -95.5q91 6 188 6v-173z" />
<glyph unicode="&#xe183;" horiz-adv-x="544" d="M214 222q0 -68 50 -68q25 0 40.5 19t15.5 51q0 79 -83 79q-6 0 -14.5 -0.5t-20.5 -1.5v160q9 0 14.5 -0.5t10.5 -0.5q83 0 83 77q0 63 -43 63q-17 0 -28.5 -12.5t-11.5 -38.5v-10h-197q4 52 23 94.5t50.5 72.5t74.5 46t96 16q49 0 92 -17t75 -47t50 -70t18 -86 q0 -104 -91 -158q101 -59 101 -175q0 -50 -18.5 -92t-52.5 -72t-81 -47t-104 -17q-55 0 -100.5 16t-78.5 45.5t-51 70.5t-18 91v12h199z" />
<glyph unicode="&#xe184;" horiz-adv-x="544" d="M478 0h-203v153h-274v159l228 442h249v-439h65v-162h-65v-153zM284 315v141q0 10 1.5 31.5t3.5 54.5q-7 -16 -14.5 -32t-15.5 -32l-90 -163h115z" />
<glyph unicode="&#xe185;" horiz-adv-x="544" d="M49 224q88 -52 161 -52q48 0 76.5 24t28.5 60q0 42 -32 63.5t-89 21.5q-63 0 -133 -27l59 440h375v-177h-215l-16 -85q11 1 19 1.5t15 0.5q45 0 85 -17.5t70 -49t47.5 -74.5t17.5 -93q0 -58 -22 -108t-60 -86.5t-90.5 -57.5t-113.5 -21q-107 0 -207 58z" />
<glyph unicode="&#xe186;" horiz-adv-x="544" d="M426 754l-121 -214q-8 -13 -16.5 -28t-20.5 -32q40 21 72 21q39 0 73 -19t59 -51.5t39.5 -76.5t14.5 -94q0 -59 -18.5 -109t-53 -86.5t-83 -57t-108.5 -20.5q-56 0 -101 20t-77.5 56t-50 86t-17.5 110q0 131 121 363l69 132h219zM330 253q0 101 -58 101q-56 0 -56 -101 q0 -104 56 -104q58 0 58 104z" />
<glyph unicode="&#xe187;" horiz-adv-x="544" d="M234 0h-219l182 401q20 45 44 88t53 88h-256v177h535z" />
<glyph unicode="&#xe188;" horiz-adv-x="544" d="M412 393q64 -26 90.5 -70.5t26.5 -108.5q0 -49 -19.5 -90.5t-53.5 -72t-81.5 -47.5t-102.5 -17q-56 0 -103 17t-81 47.5t-53.5 72t-19.5 90.5q0 126 128 179q-55 26 -84 62t-29 98q0 45 18.5 84.5t50.5 68.5t76.5 45.5t96.5 16.5t96.5 -16.5t77 -45.5t51 -68.5 t18.5 -84.5q0 -62 -24.5 -98t-78.5 -62zM322 236q0 34 -13.5 55.5t-36.5 21.5t-36.5 -21.5t-13.5 -55.5t13.5 -54.5t36.5 -20.5t36.5 20.5t13.5 54.5zM315 540q0 65 -43 65q-41 0 -41 -65q0 -66 41 -66q43 0 43 66z" />
<glyph unicode="&#xe189;" horiz-adv-x="544" d="M118 1l121 214q8 13 16.5 28t20.5 32q-41 -21 -72 -21q-39 0 -73 19t-59 51.5t-39.5 76.5t-14.5 94q0 59 18.5 109t53 86.5t83 57t108.5 20.5q55 0 100.5 -20t78 -56t50 -86t17.5 -110q0 -131 -121 -363l-69 -132h-219zM214 502q0 -101 58 -101q56 0 56 101 q0 104 -56 104q-58 0 -58 -104z" />
<glyph unicode="&#xe200;" horiz-adv-x="150" />
<glyph unicode="&#xe201;" horiz-adv-x="830" d="M325 0h-204v573h-115v181h403v-181h-84v-573zM709 0h-204v573h-84v181h403v-181h-115v-573z" />
<glyph unicode="&#xe202;" horiz-adv-x="6" d="M6 101q0 24 9 44.5t24.5 36t36 24.5t44.5 9t44.5 -9t36 -24.5t24.5 -36t9 -44.5t-9 -44.5t-24.5 -36t-36 -24.5t-44.5 -9t-44.5 9t-36 24.5t-24.5 36t-9 44.5z" />
<glyph unicode="&#xe203;" horiz-adv-x="952" d="M571 0h-210l-17 96h-135l-17 -96h-210l174 754h242zM320 257l-29 203q-3 19 -6 45t-8 69q-5 -43 -7.5 -69t-5.5 -45l-31 -203h87zM558 220q53 -47 122 -47q26 0 42.5 14t16.5 35q0 30 -36 59l-33 26q-66 51 -94.5 100.5t-28.5 112.5q0 52 17.5 97t48.5 78.5t73 53 t90 19.5q72 0 146 -39v-230q-25 38 -56.5 60.5t-62.5 22.5q-23 0 -38.5 -13.5t-15.5 -32.5q0 -30 41 -60l33 -24q64 -47 92 -95.5t28 -113.5q0 -56 -18 -102.5t-49.5 -81t-76 -53.5t-96.5 -19q-72 0 -94 13z" />
<glyph unicode="&#xe204;" horiz-adv-x="900" d="M12 255q69 -82 138 -82q26 0 42.5 14t16.5 35q0 30 -36 59l-33 26q-66 52 -98.5 100.5t-32.5 112.5q0 52 17.5 97t48.5 78.5t73 53t90 19.5q72 0 146 -39l35 -116l-43 -110q-17 34 -48.5 56.5t-62.5 22.5q-23 0 -38.5 -13.5t-15.5 -32.5q0 -30 49 -60l33 -24 q64 -47 92 -95.5t28 -113.5q0 -56 -18 -102.5t-49.5 -81t-76 -53.5t-96.5 -19q-70 0 -161 32v236zM743 0h-204v319l-187 435h212l37 -112q11 -32 19.5 -62.5t15.5 -58.5q6 28 14.5 58.5t19.5 62.5l37 112h211l-175 -435v-319z" />
<glyph unicode="&#xe702;" horiz-adv-x="196" d="M196 875q0 -20 -8 -37.5t-21 -31t-31 -21t-37 -7.5q-21 0 -39.5 8t-31.5 21.5t-20.5 31.5t-7.5 38q0 42 28 69.5t70 27.5q19 0 37 -7.5t31.5 -21t21.5 -31.5t8 -39z" />
<glyph unicode="&#xe703;" horiz-adv-x="196" d="M196 863q0 -20 -8 -37.5t-21 -31t-31 -21t-37 -7.5q-21 0 -39.5 8t-31.5 21.5t-20.5 31.5t-7.5 38q0 42 28 69.5t70 27.5q19 0 37 -7.5t31.5 -21t21.5 -31.5t8 -39zM140 863q0 18 -12 30.5t-30 12.5q-17 0 -29 -12t-12 -30q0 -17 12.5 -29.5t29.5 -12.5t29 12.5t12 28.5z " />
<glyph unicode="&#xe706;" horiz-adv-x="364" d="M364 782h-128l-54 86l-54 -86h-128l100 164h164z" />
<glyph unicode="&#xe708;" horiz-adv-x="354" d="M90 946q11 -35 31 -55.5t56 -20.5t56 20.5t31 55.5h90q-8 -77 -53 -120.5t-124 -43.5t-124 43.5t-53 120.5h90z" />
<glyph unicode="&#xe709;" horiz-adv-x="384" d="M384 935v-16q0 -60 -32.5 -97.5t-86.5 -37.5q-11 0 -29 6t-38 13t-38 13t-27 6q-29 0 -30 -40h-103q0 75 29.5 112t84.5 37q15 0 33 -3.5t38 -11.5l34 -14q8 -3 16 -5.5t16 -2.5q29 0 32 41h101z" />
<glyph unicode="&#xe711;" horiz-adv-x="213" d="M20 -132q10 -17 28.5 -25.5t32.5 -8.5q18 0 31.5 11.5t13.5 28.5q0 18 -15.5 29.5t-35.5 11.5q-12 0 -24 -4t-22 -9l26 98h73l-9 -38q19 0 36.5 -6.5t31.5 -19t22.5 -30.5t8.5 -40q0 -24 -10 -44t-27 -35t-40 -23t-49 -8q-22 0 -48 6t-47 19z" />
<glyph unicode="&#xe718;" horiz-adv-x="161" d="M161 582l-95 -109h-66l61 125v29h-61v123h161v-168z" />
<glyph unicode="&#xe719;" horiz-adv-x="135" d="M66 543h-78l58 103h-46v108h135v-102z" />
<glyph unicode="&#xe720;" horiz-adv-x="338" d="M338 863q0 -33 -24 -57t-57 -24q-35 0 -59 24t-24 58t24 58t58 24t58 -24.5t24 -58.5zM163 864q0 -17 -7 -32t-18 -26t-26 -17.5t-31 -6.5q-33 0 -57 24.5t-24 57.5q0 34 24 58t57 24q34 0 58 -24t24 -58z" />
<glyph unicode="&#xe722;" horiz-adv-x="328" d="M326 782h-128l-35 77l-35 -77h-128l100 164h126z" />
<glyph unicode="&#xe723;" horiz-adv-x="209" d="M209 946l-95 -164h-114l50 164h159z" />
<glyph unicode="&#xe724;" horiz-adv-x="209" d="M0 946h160l49 -164h-114z" />
<glyph unicode="&#xe725;" horiz-adv-x="292" d="M0 810v109h292v-109h-292z" />
<glyph unicode="&#xe726;" horiz-adv-x="348" d="M348 935v-16q0 -32 -8.5 -57t-22.5 -42.5t-32 -26.5t-37 -9q-16 0 -31 6t-29.5 13t-28 13t-27.5 6q-12 0 -23.5 -11t-11.5 -29h-97q0 38 8.5 66t22.5 46.5t32 27.5t37 9t35 -6t29.5 -12.5t26.5 -12.5t27 -6q12 0 23.5 11.5t11.5 29.5h95z" />
<glyph unicode="&#xe769;" horiz-adv-x="129" d="M129 694l-77 -87h-52l49 100v23h-49v95h129v-131z" />
<glyph unicode="&#xe770;" horiz-adv-x="327" d="M0 672q0 30 21 51t51 21t51 -21t21 -51t-21 -51t-51 -21t-51 21t-21 51zM183 672q0 30 21 51t51 21t51 -21t21 -51t-21 -51t-51 -21t-51 21t-21 51z" />
<glyph unicode="&#xe772;" horiz-adv-x="329" d="M329 600h-144l-32 76l-37 -76h-116l79 156h176z" />
<glyph unicode="&#xe773;" horiz-adv-x="211" d="M0 600l53 167h158l-99 -167h-112z" />
<glyph unicode="&#xe774;" horiz-adv-x="211" d="M211 600h-112l-99 167h158z" />
<glyph unicode="&#xe775;" horiz-adv-x="287" d="M0 618v110h287v-110h-287z" />
<glyph unicode="&#xe784;" horiz-adv-x="135" d="M69 811h78l-58 -103h46v-108h-135v102z" />
<glyph unicode="&#xf6c3;" horiz-adv-x="135" d="M66 -231h-78l58 103h-46v108h135v-102z" />
<glyph unicode="&#xf6c9;" horiz-adv-x="209" d="M112 782h-117l57 164h164z" />
<glyph unicode="&#xf6ca;" horiz-adv-x="364" d="M264 782h-164l-100 164h128l54 -86l54 86h128z" />
<glyph unicode="&#xf6cb;" horiz-adv-x="388" d="M370 863q0 -33 -24 -57t-57 -24q-35 0 -59 24t-24 58t24 58t58 24t58 -24.5t24 -58.5zM181 864q0 -17 -7 -32t-18 -26t-26 -17.5t-31 -6.5q-33 0 -57 24.5t-24 57.5q0 34 24 58t57 24q34 0 58 -24t24 -58z" />
<glyph unicode="&#xf6ce;" horiz-adv-x="209" d="M-5 946h164l57 -164h-117z" />
<glyph unicode="&#xf6cf;" horiz-adv-x="364" d="M0 782l53 164h139l-91 -164h-101zM171 782l54 164h139l-92 -164h-101z" />
<glyph unicode="&#xf6d0;" horiz-adv-x="354" d="M0 810v108h354v-108h-354z" />
<glyph unicode="&#xf8ff;" horiz-adv-x="482" d="M375 234q28 0 51 10.5t41 28.5q-14 -36 -37.5 -66t-54 -51.5t-67 -34t-76.5 -12.5q-72 0 -128 34t-89 91h40v154h2l118 -154h65v250h-65v-152h-3l-117 152h-40q33 57 90 91t127 34q40 0 76.5 -12t67 -33.5t54 -51.5t36.5 -66q-35 38 -91 38h-92v-250h92zM348 429h15 q31 0 51 -18t20 -52q0 -36 -21.5 -52.5t-50.5 -16.5h-14v139z" />
<glyph unicode="&#xfb01;" horiz-adv-x="563" d="M563 0h-197v528h197v-528zM366 578v40q0 24 -16 40.5t-40 16.5q-23 0 -40 -16.5t-17 -40.5v-90h70v-158h-70v-370h-196v370h-57v158h57v90q0 46 20 86t54.5 70t80.5 47t98 17q51 0 97 -17t80.5 -47t55 -70t20.5 -86v-40h-197z" />
<glyph unicode="&#xfb02;" horiz-adv-x="563" d="M366 618q0 24 -16 40.5t-40 16.5q-23 0 -40 -16.5t-17 -40.5v-90h70v-158h-70v-370h-196v370h-57v158h57v90q0 46 20 86t54.5 70t80.5 47t98 17q51 0 97 -17t80.5 -47t55 -70t20.5 -86v-618h-197v618z" />
<glyph horiz-adv-x="396" d="M163 -107v94h-7q-71 0 -153 32v236q61 -82 130 -82q26 0 42.5 14t16.5 35q0 30 -36 59l-33 26q-66 51 -94.5 100.5t-28.5 112.5q0 42 12 80.5t33.5 70t51.5 54t66 33.5v104h86v-95q60 -4 126 -38v-230q-25 38 -56.5 60.5t-62.5 22.5q-23 0 -38.5 -13.5t-15.5 -32.5 q0 -30 41 -60l33 -24q64 -47 92 -95.5t28 -113.5q0 -85 -40 -148t-107 -91v-111h-86z" />
<glyph horiz-adv-x="179" d="M152 443h-126l-26 311h179z" />
<glyph horiz-adv-x="288" d="M0 -160q54 108 83 225t29 229q0 117 -29 232t-83 224l146 78q142 -254 142 -534q0 -141 -35 -272.5t-107 -260.5z" />
<glyph horiz-adv-x="497" d="M0 326v117h188v202h121v-202h188v-117h-188v-201h-121v201h-188z" />
<glyph horiz-adv-x="161" d="M243 181l-82 -205h-165l56 205h191z" />
<glyph horiz-adv-x="687" d="M520 415l-29 -248q-3 -23 -3 -45q0 -30 17 -30q16 0 31 15.5t27 40.5t19 56t7 62q0 53 -17.5 98.5t-48 78.5t-72.5 51.5t-91 18.5q-54 0 -100 -23t-80.5 -62.5t-54 -93.5t-19.5 -116t19.5 -115.5t54 -93.5t81.5 -62.5t103 -22.5q116 0 215 60l44 -84q-134 -71 -249 -71 q-85 0 -154 30.5t-118 83.5t-75.5 124t-26.5 151q0 82 27.5 153t76 123.5t114 82.5t142.5 30q68 0 127.5 -26t104 -71t70 -106t25.5 -131q0 -55 -15 -104t-40.5 -86t-59.5 -59t-72 -22q-43 0 -75 47q-52 -49 -99 -49q-31 0 -57 15.5t-45 42.5t-29.5 64t-10.5 79q0 47 13 88 t36 71t54 47t67 17q41 0 75 -31l5 22h86zM412 232q0 37 -13.5 64.5t-37.5 27.5q-15 0 -28 -10t-22 -27.5t-14.5 -41t-5.5 -50.5q0 -42 13 -69t36 -27q14 0 27 11t23 30t16 42.5t6 49.5z" />
<glyph horiz-adv-x="646" d="M539 -239l-539 1010l106 57l540 -1007z" />
<glyph horiz-adv-x="485" d="M145 288h194v-184q-36 0 -62 -4t-42.5 -14.5t-24 -29.5t-7.5 -50q0 -83 43 -83q42 0 42 85h197q0 -121 -62.5 -187t-176.5 -66q-54 0 -99 18.5t-77.5 51t-51 78t-18.5 99.5q0 82 37.5 135.5t107.5 72.5v78zM126 458q0 24 9 44.5t24.5 36t36 24.5t44.5 9t44.5 -9t36 -24.5 t24.5 -36t9 -44.5t-9 -44.5t-24.5 -36t-36 -24.5t-44.5 -9t-44.5 9t-36 24.5t-24.5 36t-9 44.5z" />
<glyph horiz-adv-x="229" d="M214 -234h-199v527h199v-527zM0 460q0 24 9 44.5t24.5 36t36 24.5t44.5 9t44.5 -9t36.5 -24.5t25 -36t9 -44.5t-9 -44.5t-25 -36.5t-36.5 -25t-44.5 -9t-44.5 9t-36 25t-24.5 36.5t-9 44.5z" />
<glyph horiz-adv-x="241" d="M236 -95l-131 -149l-79 59l110 166z" />
<glyph horiz-adv-x="287" d="M241 0h-196v528h196v-528zM0 618v110h287v-110h-287z" />
<glyph horiz-adv-x="568" d="M550 378q0 -88 -18 -160t-52 -123.5t-83.5 -79.5t-112.5 -28t-112.5 28t-83.5 79.5t-52 123.5t-18 160t18 160t52 123t83.5 79t112.5 28t112.5 -28t83.5 -79t52 -123t18 -160zM350 378q0 109 -16 161.5t-50 52.5t-50 -52.5t-16 -161.5q0 -215 66 -215t66 215z" />
<glyph horiz-adv-x="339" d="M291 0h-204v577h-81v177h285v-754z" />
<glyph horiz-adv-x="529" d="M498 0h-519l206 275q35 47 59 82.5t38.5 65t20.5 55.5t6 55q0 31 -12.5 49t-35.5 18q-48 0 -48 -92v-11.5t1 -16.5h-197q-1 7 -1.5 15.5t-0.5 15.5q0 57 19 104.5t53 81.5t80 52.5t99 18.5q51 0 95.5 -17.5t77 -50t51 -78t18.5 -101.5q0 -45 -11 -87t-35 -84.5t-61.5 -87 t-90.5 -95.5q91 6 188 6v-173z" />
<glyph horiz-adv-x="519" d="M199 222q0 -68 50 -68q25 0 40.5 19t15.5 51q0 79 -83 79q-6 0 -14.5 -0.5t-20.5 -1.5v160q9 0 14.5 -0.5t10.5 -0.5q83 0 83 77q0 63 -43 63q-17 0 -28.5 -12.5t-11.5 -38.5v-10h-197q4 52 23 94.5t50.5 72.5t74.5 46t96 16q49 0 92 -17t75 -47t50 -70t18 -86 q0 -104 -91 -158q101 -59 101 -175q0 -50 -18.5 -92t-52.5 -72t-81 -47t-104 -17q-55 0 -100.5 16t-78.5 45.5t-51 70.5t-18 91v12h199z" />
<glyph horiz-adv-x="566" d="M492 0h-203v153h-274v159l228 442h249v-439h65v-162h-65v-153zM298 315v141q0 10 1.5 31.5t3.5 54.5q-7 -16 -14.5 -32t-15.5 -32l-90 -163h115z" />
<glyph horiz-adv-x="493" d="M15 224q88 -52 161 -52q48 0 76.5 24t28.5 60q0 42 -32 63.5t-89 21.5q-63 0 -133 -27l59 440h375v-177h-215l-16 -85q11 1 19 1.5t15 0.5q45 0 85 -17.5t70 -49t47.5 -74.5t17.5 -93q0 -58 -22 -108t-60 -86.5t-90.5 -57.5t-113.5 -21q-107 0 -207 58z" />
<glyph horiz-adv-x="537" d="M424 754l-121 -214q-8 -13 -16.5 -28t-20.5 -32q40 21 72 21q39 0 73 -19t59 -51.5t39.5 -76.5t14.5 -94q0 -59 -18.5 -109t-53 -86.5t-83 -57t-108.5 -20.5q-56 0 -101 20t-77.5 56t-50 86t-17.5 110q0 131 121 363l69 132h219zM328 253q0 101 -58 101q-56 0 -56 -101 q0 -104 56 -104q58 0 58 104z" />
<glyph horiz-adv-x="499" d="M192 0h-219l182 401q20 45 44 88t53 88h-256v177h535z" />
<glyph horiz-adv-x="538" d="M409 393q64 -26 90.5 -70.5t26.5 -108.5q0 -49 -19.5 -90.5t-53.5 -72t-81.5 -47.5t-102.5 -17q-56 0 -103 17t-81 47.5t-53.5 72t-19.5 90.5q0 126 128 179q-55 26 -84 62t-29 98q0 45 18.5 84.5t50.5 68.5t76.5 45.5t96.5 16.5t96.5 -16.5t77 -45.5t51 -68.5 t18.5 -84.5q0 -62 -24.5 -98t-78.5 -62zM319 236q0 34 -13.5 55.5t-36.5 21.5t-36.5 -21.5t-13.5 -55.5t13.5 -54.5t36.5 -20.5t36.5 20.5t13.5 54.5zM312 540q0 65 -43 65q-41 0 -41 -65q0 -66 41 -66q43 0 43 66z" />
<glyph horiz-adv-x="537" d="M113 1l121 214q8 13 16.5 28t20.5 32q-41 -21 -72 -21q-39 0 -73 19t-59 51.5t-39.5 76.5t-14.5 94q0 59 18.5 109t53 86.5t83 57t108.5 20.5q55 0 100.5 -20t78 -56t50 -86t17.5 -110q0 -131 -121 -363l-69 -132h-219zM209 502q0 -101 58 -101q56 0 56 101 q0 104 -56 104q-58 0 -58 -104z" />
<glyph horiz-adv-x="232" d="M2 425q0 24 9 44.5t24.5 36t36 24.5t44.5 9t44.5 -9t36 -24.5t24.5 -36t9 -44.5t-9 -44.5t-24.5 -36t-36 -24.5t-44.5 -9t-44.5 9t-36 24.5t-24.5 36t-9 44.5zM2 103q0 24 9 44.5t24.5 36t36 24.5t44.5 9t44.5 -9t36 -24.5t24.5 -36t9 -44.5t-9 -44.5t-24.5 -36 t-36 -24.5t-44.5 -9t-44.5 9t-36 24.5t-24.5 36t-9 44.5z" />
<glyph horiz-adv-x="229" d="M214 270h-199v527h199v-527zM0 103q0 24 9 44.5t24.5 36.5t36 25t44.5 9t44.5 -9t36.5 -25t25 -36.5t9 -44.5t-9 -44.5t-25 -36t-36.5 -24.5t-44.5 -9t-44.5 9t-36 24.5t-24.5 36t-9 44.5z" />
<glyph horiz-adv-x="485" d="M340 273h-194v185q11 -1 18.5 -1.5t12.5 -0.5q57 0 81.5 23.5t24.5 75.5q0 84 -44 84q-42 0 -42 -86h-197q0 121 63 187.5t177 66.5q53 0 98 -19t77.5 -52t51 -78.5t18.5 -98.5q0 -84 -36.5 -136.5t-108.5 -71.5v-78zM131 103q0 24 9 44.5t24.5 36t36 24.5t44.5 9 t44.5 -9t36 -24.5t24.5 -36t9 -44.5t-9 -44.5t-24.5 -36t-36 -24.5t-44.5 -9t-44.5 9t-36 24.5t-24.5 36t-9 44.5z" />
<glyph horiz-adv-x="312" d="M293 180l-132 -362h-161l92 362h201zM84 425q0 24 9 44.5t24.5 36t36 24.5t44.5 9t44.5 -9t36 -24.5t24.5 -36t9 -44.5t-9 -44.5t-24.5 -36t-36 -24.5t-44.5 -9t-44.5 9t-36 24.5t-24.5 36t-9 44.5z" />
<glyph horiz-adv-x="604" d="M589 377q0 -91 -21.5 -165t-63.5 -126l92 -101l-163 -89l-68 99q-34 -8 -63 -8q-65 0 -117.5 28t-90.5 79.5t-58.5 123.5t-20.5 159t20.5 159t58.5 123.5t90.5 80t117.5 28.5q64 0 117 -28.5t91 -80t58.5 -123.5t20.5 -159zM378 377q0 97 -20 149t-56 52t-56 -52 t-20 -149t20 -148.5t56 -51.5t56 51.5t20 148.5z" />
<glyph horiz-adv-x="474" d="M450 338v-111h-85l-28 -227h-116l28 227h-61l-27 -227h-116l28 227h-73v111h87l11 92h-72v112h86l26 212h115l-26 -212h61l26 212h116l-26 -212h70v-112h-84l-11 -92h71zM274 430h-61l-11 -92h61z" />
<glyph horiz-adv-x="784" d="M453 392q0 37 -13 63.5t-39 26.5q-29 0 -49 -35.5t-20 -89.5q0 -43 13.5 -61.5t34.5 -18.5q30 0 51.5 32t21.5 83zM565 573l-28 -223q-2 -11 -2.5 -23t-0.5 -19q0 -18 6 -31t23 -13q16 0 29.5 12t23.5 33t16 49.5t6 61.5q0 56 -17 102.5t-47.5 79.5t-72 51t-90.5 18 q-54 0 -103.5 -22t-86.5 -62.5t-59 -97t-22 -124.5q0 -58 17 -109.5t50 -90t81 -61t110 -22.5q18 0 47.5 2.5t62.5 9t65 18.5t55 30l44 -84q-55 -32 -124.5 -51.5t-141.5 -19.5q-89 0 -157 30.5t-114.5 82t-70 120.5t-23.5 146q0 88 29 161.5t79.5 126.5t117.5 82t144 29 q71 0 131 -25t103 -70.5t67 -108.5t24 -138q0 -54 -12.5 -99.5t-36 -79t-57.5 -52t-76 -18.5q-32 0 -49.5 11.5t-34.5 35.5q-26 -25 -50.5 -37t-51.5 -12q-29 0 -54.5 13.5t-44.5 38t-29.5 59.5t-10.5 77q0 47 13 87.5t36 70.5t53 47t65 17q44 0 78 -31l5 22h86z" />
<glyph horiz-adv-x="288" d="M288 750q-54 -106 -83.5 -225t-29.5 -231t30.5 -230.5t82.5 -223.5l-147 -79q-141 255 -141 533q0 279 141 534z" />
<glyph horiz-adv-x="424" d="M148 754h128l-8 -124l116 45l40 -121l-121 -32l80 -96l-104 -76l-67 106l-67 -106l-104 76l79 96l-120 31l39 122l117 -45z" />
<glyph horiz-adv-x="645" d="M106 -239l-106 60l539 1007l106 -57z" />
<glyph horiz-adv-x="565" d="M0 -54h565v-125h-565v125z" />
<glyph horiz-adv-x="213" d="M20 -132q10 -17 28.5 -25.5t32.5 -8.5q18 0 31.5 11.5t13.5 28.5q0 18 -15.5 29.5t-35.5 11.5q-12 0 -24 -4t-22 -9l14 52q6 3 24.5 7.5t38.5 4.5q47 0 79.5 -28t32.5 -73q0 -23 -10 -43t-27 -34.5t-40 -23t-49 -8.5q-22 0 -48 6t-47 19z" />
<glyph horiz-adv-x="579" d="M24 0v754h194l106 -277q8 -21 15.5 -45t15 -47.5t13.5 -45.5t11 -40q-6 79 -12.5 148.5t-6.5 114.5v192h195v-754h-195l-102 277q-16 43 -29 82.5t-23 75.5q6 -79 9 -138.5t3 -104.5v-192h-194zM490 935v-16q0 -60 -32.5 -97.5t-86.5 -37.5q-11 0 -29 6t-38 13t-38 13 t-27 6q-29 0 -30 -40h-103q0 75 29.5 112t84.5 37q15 0 33 -3.5t38 -11.5l34 -14q8 -3 16 -5.5t16 -2.5q29 0 32 41h101z" />
</font>
</defs>
</svg>
